<?xml version="1.0" standalone="no"?>
<!DOCTYPE svg PUBLIC "-//W3C//DTD SVG 20010904//EN"
 "http://www.w3.org/TR/2001/REC-SVG-20010904/DTD/svg10.dtd">
<svg version="1.0" xmlns="http://www.w3.org/2000/svg"
 width="854.000000pt" height="480.000000pt" viewBox="0 0 854.000000 480.000000"
 preserveAspectRatio="xMidYMid meet">

<g transform="translate(0.000000,480.000000) scale(0.100000,-0.100000)"
fill="#000000" stroke="none">
<path d="M728 4763 c16 -21 35 -51 44 -68 8 -16 19 -39 25 -50 58 -104 63
-133 37 -206 -22 -60 -14 -84 24 -73 71 20 80 15 128 -71 65 -118 81 -153 99
-227 18 -72 72 -164 137 -236 21 -23 36 -47 33 -52 -9 -15 13 -85 36 -114 12
-15 35 -32 52 -39 l30 -13 -94 -108 c-52 -59 -116 -134 -144 -166 -27 -32 -53
-59 -57 -59 -3 -1 -25 15 -48 34 -44 37 -62 44 -59 23 6 -51 -50 -117 -140
-163 -36 -19 -77 -41 -91 -49 -14 -8 -56 -33 -94 -55 l-68 -40 -37 18 c-42 22
-142 46 -162 39 -8 -3 5 -17 33 -36 33 -23 51 -44 63 -76 20 -51 15 -66 -23
-66 -15 0 -85 -16 -157 -35 -72 -20 -167 -45 -213 -57 l-82 -21 0 -249 c0
-136 2 -248 3 -248 2 0 67 -13 144 -30 149 -31 187 -43 197 -59 4 -5 -7 -4
-24 2 -27 10 -37 8 -86 -17 -68 -36 -170 -144 -207 -219 -26 -53 -27 -63 -27
-206 l0 -150 28 -19 c15 -11 43 -25 62 -30 33 -10 31 -10 -27 -11 l-63 -1 0
-780 0 -780 95 0 c52 0 95 4 95 9 0 4 18 29 41 55 l41 46 72 0 c40 0 99 -5
131 -12 47 -9 61 -17 74 -40 9 -15 18 -28 21 -28 3 0 16 28 29 62 57 153 145
269 234 312 181 89 486 89 670 1 121 -57 160 -116 198 -299 l22 -106 996 0
996 0 27 68 c15 37 84 202 153 367 69 165 133 318 142 340 9 22 20 44 25 50 4
5 8 15 8 23 0 8 9 26 20 42 11 15 17 30 14 33 -3 3 4 3 17 0 19 -5 21 -3 17
15 -4 12 -2 22 4 22 6 0 8 -11 6 -25 -5 -25 22 -65 43 -65 6 0 9 -6 6 -14 -3
-8 -1 -17 6 -19 7 -2 0 -4 -15 -3 -16 0 -28 5 -28 9 0 5 -4 5 -10 2 -5 -3 -10
-1 -10 5 0 6 -4 8 -10 5 -6 -3 -10 -11 -10 -16 0 -6 4 -8 10 -4 5 3 19 -4 30
-15 13 -13 29 -19 45 -16 14 3 23 1 20 -4 -3 -5 -1 -11 5 -15 11 -7 -6 -41
-34 -67 -16 -15 -17 -18 -3 -18 9 0 20 8 26 18 9 16 12 16 38 2 15 -9 29 -21
29 -28 1 -7 3 -14 4 -17 1 -3 3 -8 4 -12 1 -5 5 -14 10 -22 6 -9 5 -12 -2 -7
-6 3 -14 1 -18 -5 -4 -8 -3 -9 4 -5 7 4 12 2 12 -5 0 -8 3 -9 13 0 8 6 16 9
18 7 2 -2 5 7 6 21 0 15 8 30 17 35 9 5 16 15 16 22 0 7 11 34 25 60 13 25 24
47 22 49 -4 5 30 47 35 42 3 -3 4 6 3 20 -3 18 1 25 15 25 16 0 15 -6 -10 -78
-28 -79 -107 -290 -142 -376 -15 -37 -17 -51 -8 -56 9 -6 7 -11 -6 -19 -11 -6
-13 -11 -6 -11 8 0 10 -5 6 -12 -5 -9 -4 -10 4 -3 6 6 31 60 55 120 78 188
164 392 175 411 16 27 14 4 -3 -45 -8 -22 -12 -41 -9 -41 2 0 -2 -13 -11 -30
-10 -19 -12 -30 -4 -30 13 0 3 -56 -17 -87 -8 -12 -14 -29 -14 -37 0 -9 -6
-30 -14 -48 -8 -18 -55 -143 -105 -278 -49 -135 -93 -253 -96 -263 -7 -16 51
-17 1132 -17 l1139 0 25 167 c20 139 27 168 41 168 23 0 138 68 138 82 0 15
-98 133 -110 133 -6 0 -10 9 -10 20 0 11 3 20 8 20 4 0 34 -34 67 -75 33 -40
66 -76 74 -80 19 -8 136 67 136 87 0 9 -14 31 -30 50 -17 18 -52 61 -79 95
-52 67 -70 74 -111 47 -13 -9 -30 -14 -36 -12 -7 2 4 14 24 26 21 12 37 26 37
31 0 17 -63 101 -76 101 -14 0 -44 46 -80 120 -13 26 -56 88 -96 137 -41 48
-85 102 -98 119 -59 75 -284 349 -290 354 -3 3 -64 77 -136 165 -71 88 -226
277 -344 420 -328 399 -333 405 -365 445 -16 21 -80 98 -141 171 -280 339
-708 863 -931 1138 -56 69 -99 129 -97 133 3 4 43 27 91 52 47 24 81 40 75 34
-6 -6 -8 -17 -5 -25 3 -9 -6 -25 -21 -40 -15 -14 -25 -31 -22 -39 3 -8 1 -14
-3 -14 -5 0 -5 -16 -1 -36 5 -20 6 -42 4 -49 -3 -6 15 -34 40 -61 25 -27 43
-41 40 -32 -4 13 -1 15 15 11 11 -3 19 -9 16 -13 -3 -4 5 -10 16 -13 14 -4 29
2 46 19 24 24 25 30 20 100 -4 47 -2 74 4 74 6 0 8 4 4 9 -3 5 -1 12 4 15 4 3
11 -16 14 -42 5 -39 24 -134 52 -249 3 -13 9 -23 14 -23 11 0 24 58 20 90 -11
92 38 337 70 348 18 6 41 -17 34 -35 -4 -11 1 -9 15 5 36 36 42 25 21 -35 -10
-31 -17 -58 -15 -60 4 -4 76 142 76 154 0 5 10 30 65 158 11 25 156 381 172
423 4 9 -421 12 -2107 12 l-2112 0 30 -37z m3806 -338 c8 -9 13 -22 9 -31 -5
-13 -7 -13 -17 0 -6 9 -20 22 -31 30 -20 15 -20 15 2 16 12 0 28 -7 37 -15z
m122 -179 c-27 -61 -49 -77 -72 -54 -12 12 -13 20 -3 41 7 15 16 27 21 27 4 0
8 5 8 10 0 6 15 27 33 46 32 36 32 36 35 12 2 -14 -8 -51 -22 -82z m-2400
-135 l39 -19 -30 -4 c-29 -4 -85 19 -85 34 0 14 35 9 76 -11z m1749 -113 c4
-18 21 -133 39 -255 l32 -223 -28 -27 c-31 -30 -36 -58 -13 -67 21 -8 31 20
15 39 -20 24 1 17 21 -7 22 -25 22 -23 7 -48 -11 -16 -9 -22 7 -35 20 -16 20
-16 0 -13 -12 2 -21 12 -23 26 -2 12 -10 22 -17 22 -19 0 -47 29 -39 41 3 6 7
22 9 36 1 15 10 32 20 39 18 13 13 34 -8 34 -7 0 -23 -12 -36 -26 -19 -19 -30
-24 -50 -19 -32 8 -38 18 -36 58 3 34 -11 61 -26 51 -13 -8 -11 -42 4 -47 7
-3 6 -6 -5 -6 -20 -1 -32 31 -23 60 9 26 -34 77 -47 57 -14 -22 -9 -38 13 -38
11 0 17 -4 14 -10 -11 -18 -35 -10 -45 15 -5 14 -13 25 -17 25 -5 0 -23 18
-41 40 -31 38 -32 41 -19 72 8 18 21 39 31 47 12 11 14 17 5 28 -7 7 -9 16 -6
19 8 8 241 142 249 143 4 1 10 -14 13 -31z m-2115 -1451 c0 -1 -24 -25 -52
-52 l-53 -50 50 53 c46 48 55 57 55 49z m1040 -71 c0 -2 -8 -10 -17 -17 -16
-13 -17 -12 -4 4 13 16 21 21 21 13z m-1200 -79 c0 -2 -19 -21 -42 -42 l-43
-40 40 43 c36 39 45 47 45 39z m-130 -120 c0 -1 -30 -32 -67 -67 l-68 -65 65
68 c60 62 70 72 70 64z m950 -171 c0 -2 -8 -10 -17 -17 -16 -13 -17 -12 -4 4
13 16 21 21 21 13z m-932 -913 c-8 -10 -18 -26 -21 -35 -4 -10 -11 -18 -17
-18 -16 0 -12 12 17 42 29 31 45 39 21 11z m2577 -283 c-3 -5 -11 -10 -16 -10
-6 0 -7 5 -4 10 3 6 11 10 16 10 6 0 7 -4 4 -10z m35 -14 c0 -2 -7 -7 -16 -10
-8 -3 -12 -2 -9 4 6 10 25 14 25 6z m73 -121 c-3 -9 -8 -14 -10 -11 -3 3 -2 9
2 15 9 16 15 13 8 -4z m11 -60 c3 -9 0 -15 -9 -15 -8 0 -15 7 -15 15 0 8 4 15
9 15 5 0 11 -7 15 -15z m10 -41 c3 -8 2 -12 -4 -9 -6 3 -10 10 -10 16 0 14 7
11 14 -7z"/>
<path d="M3750 3800 c-6 -11 -15 -18 -20 -15 -4 3 -6 -5 -3 -17 4 -19 3 -20
-7 -8 -9 12 -11 12 -8 1 6 -22 27 -25 35 -4 4 10 15 24 25 31 10 7 18 17 18
23 0 17 -29 9 -40 -11z"/>
<path d="M3790 3765 c-10 -12 -9 -16 4 -21 18 -7 49 13 40 27 -8 14 -30 11
-44 -6z"/>
<path d="M3760 3721 c0 -12 6 -21 16 -21 9 0 14 7 12 17 -5 25 -28 28 -28 4z"/>
<path d="M3835 3719 c-8 -13 23 -49 42 -49 23 0 27 30 7 45 -23 17 -40 19 -49
4z"/>
<path d="M3911 3660 c-14 -8 -8 -40 7 -40 5 0 15 6 21 14 15 17 -8 39 -28 26z"/>
<path d="M3951 3606 c-9 -10 -8 -16 4 -26 21 -17 51 6 34 26 -6 8 -15 14 -19
14 -4 0 -13 -6 -19 -14z"/>
<path d="M3927 3574 c-13 -13 -7 -42 9 -48 8 -3 13 -2 9 3 -3 5 1 11 7 14 10
3 9 9 -3 21 -8 9 -18 13 -22 10z"/>
<path d="M4913 4618 c-55 -137 -70 -184 -60 -191 9 -6 9 -10 0 -13 -7 -3 -9
-15 -4 -32 11 -40 4 -54 -38 -84 -29 -21 -45 -44 -65 -94 -29 -72 -27 -82 24
-85 14 -1 34 -3 45 -4 11 -1 30 -3 43 -4 12 0 22 -5 22 -10 0 -19 -76 -82
-130 -107 -75 -36 -155 -89 -180 -121 -25 -32 -20 -41 12 -19 37 26 81 21 101
-13 9 -16 17 -36 17 -45 0 -13 4 -14 18 -8 9 5 33 12 52 16 45 8 120 73 120
104 0 25 21 52 40 52 6 0 9 4 6 9 -6 9 16 21 38 21 7 0 18 -10 24 -22 10 -21
11 -22 11 -3 1 11 -8 35 -19 53 -11 17 -17 32 -15 32 3 0 -9 13 -27 29 -32 29
-33 30 -13 45 17 13 23 13 40 1 11 -7 19 -19 17 -25 -1 -6 2 -9 7 -5 9 5 64
-60 73 -86 7 -20 148 41 148 63 0 6 -6 5 -15 -2 -13 -11 -15 -8 -15 19 0 18 4
30 9 27 5 -3 11 4 14 16 4 12 9 19 12 16 11 -11 67 52 61 68 -4 10 -1 14 6 11
7 -2 12 -10 10 -16 -1 -6 5 -11 13 -11 8 0 15 5 15 10 0 7 7 7 20 0 11 -6 25
-8 30 -5 6 3 10 0 10 -7 0 -9 3 -9 10 2 8 12 10 10 8 -10 -3 -29 20 -34 39 -9
7 9 26 22 43 27 l30 11 0 -40 c0 -31 -6 -46 -27 -65 -16 -14 -28 -30 -28 -34
0 -5 -3 -12 -7 -16 -12 -12 -9 -24 5 -24 8 0 20 -11 27 -25 7 -14 17 -25 22
-25 5 0 6 -4 3 -10 -4 -6 7 -10 24 -10 46 0 93 47 96 94 1 21 8 42 15 46 22
14 5 85 -45 183 -98 193 -130 225 -227 228 -30 1 -59 -1 -64 -4 -6 -3 -56 5
-111 18 -56 13 -136 29 -178 34 -42 5 -78 11 -81 13 -2 2 77 51 176 108 99 56
180 104 180 106 0 2 -71 4 -157 4 l-158 0 -72 -182z m-7 -222 c15 -15 19 -58
7 -69 -7 -8 -33 46 -33 69 0 18 8 18 26 0z"/>
<path d="M5384 4778 c20 -27 20 -38 3 -38 -18 0 -43 -29 -49 -57 -3 -12 -2
-43 3 -69 7 -39 6 -50 -6 -57 -43 -24 -2 -24 130 -2 90 15 156 -26 228 -142
50 -81 87 -222 83 -324 -2 -56 -13 -72 -66 -89 -42 -14 -51 -27 -25 -36 8 -4
15 -14 15 -23 0 -14 2 -14 10 -1 8 13 10 13 10 -2 0 -9 10 -20 22 -24 26 -8
47 16 43 52 -1 15 3 24 12 24 10 0 12 -9 8 -32 -5 -26 -4 -30 6 -21 7 7 13 35
13 63 1 34 5 50 14 50 7 0 10 -4 7 -10 -3 -5 -2 -10 4 -10 19 0 21 19 4 29
-16 9 -15 10 8 11 20 0 27 5 28 23 1 12 2 39 4 60 1 20 7 36 12 35 6 -1 9 -9
7 -16 -2 -10 3 -12 17 -7 17 5 20 3 14 -11 -4 -12 -2 -15 8 -12 8 3 14 11 14
18 0 7 6 15 13 18 8 2 10 -2 5 -13 -5 -14 -2 -16 16 -10 18 5 21 3 18 -16 -2
-13 -9 -25 -15 -27 -8 -2 -10 3 -5 14 5 14 3 16 -11 11 -10 -4 -24 -7 -31 -7
-16 0 -16 -39 -1 -56 6 -6 18 -9 27 -7 14 4 16 -2 12 -39 -3 -23 -2 -40 2 -36
6 6 13 30 14 56 1 6 6 12 12 12 5 0 7 -4 4 -10 -3 -5 0 -10 7 -10 8 0 9 -3 3
-8 -5 -4 -11 -14 -13 -22 -2 -11 1 -11 11 3 16 19 32 23 21 5 -6 -10 -3 -9 8
0 9 7 16 22 15 33 -2 22 -17 26 -17 4 0 -8 -4 -15 -9 -15 -12 0 -3 52 11 65 8
7 9 5 4 -8 -4 -13 -2 -17 6 -15 7 3 13 11 13 18 0 7 6 15 13 18 14 4 5 -29
-12 -40 -8 -5 -7 -8 1 -8 6 0 10 -9 8 -20 -2 -11 0 -20 5 -20 8 0 16 27 24 82
1 10 6 21 10 25 4 4 5 -16 1 -44 -4 -35 -3 -53 4 -53 11 0 13 8 15 69 1 19 6
36 13 38 8 3 10 -9 7 -39 -3 -23 -8 -46 -10 -50 -3 -4 1 -8 8 -8 20 -1 128
-108 128 -128 0 -12 -44 -45 -136 -102 -75 -47 -145 -93 -155 -102 -11 -10
-19 -15 -19 -10 0 4 -7 -2 -15 -12 -8 -11 -15 -16 -15 -12 0 8 -67 -29 -85
-47 -7 -7 -6 -8 3 -3 6 4 12 5 12 2 0 -3 -10 -10 -21 -17 -17 -9 -20 -8 -14 3
4 7 -3 2 -15 -12 -12 -14 -19 -19 -15 -12 6 11 3 12 -11 4 -22 -12 -65 -47
-46 -37 21 11 13 -4 -9 -16 -16 -8 -20 -8 -14 1 6 9 2 9 -14 1 -22 -12 -30
-27 -8 -16 6 4 3 -1 -8 -10 -32 -27 -65 -40 -35 -15 l25 22 -31 -17 c-29 -17
-92 -63 -66 -50 6 3 12 4 12 1 0 -3 -10 -10 -21 -17 -16 -8 -20 -8 -14 1 6 9
2 9 -14 1 -11 -7 -21 -14 -21 -17 0 -3 6 -2 13 2 8 5 9 4 2 -4 -14 -14 -633
-402 -643 -402 -4 0 4 10 18 21 14 11 18 17 10 13 -37 -18 -40 -25 -24 -55
l15 -29 52 26 c45 23 433 226 712 374 346 182 534 278 559 284 39 9 95 -10
134 -48 94 -87 887 -969 896 -995 6 -17 36 -56 66 -88 30 -32 93 -100 140
-152 47 -52 96 -99 110 -105 14 -6 100 -92 190 -191 91 -99 183 -200 206 -225
68 -74 106 -120 100 -120 -3 0 -82 27 -176 61 -141 50 -178 60 -208 54 -20 -4
-119 -9 -219 -11 -162 -4 -187 -2 -233 15 -34 13 -48 15 -40 6 6 -7 9 -17 8
-23 -4 -13 52 -54 112 -83 25 -12 48 -26 51 -31 3 -5 9 -9 13 -9 24 3 29 -1
12 -14 -12 -9 -25 -11 -41 -5 -13 5 -25 6 -29 3 -34 -35 -237 165 -211 207 9
14 -29 12 -43 -2 -20 -20 -14 -72 13 -108 28 -38 24 -48 -23 -52 -17 -1 -32
-6 -32 -10 0 -4 -9 -8 -19 -8 -11 0 -23 -4 -26 -10 -3 -5 -2 -10 4 -10 6 0 8
-7 5 -15 -4 -8 -1 -15 6 -15 6 0 8 -4 5 -10 -3 -5 -1 -10 4 -10 6 0 11 -4 11
-10 0 -5 -9 -10 -20 -10 -11 0 -20 3 -20 8 0 4 -10 13 -22 20 -14 8 -10 1 10
-18 22 -20 40 -29 52 -25 15 5 18 1 16 -24 -1 -17 3 -33 8 -35 6 -2 -2 -5 -18
-5 -16 -1 -56 -8 -89 -18 l-58 -16 -56 54 -56 54 37 -49 c53 -71 45 -92 -12
-30 -26 27 -159 181 -296 342 -137 161 -255 292 -262 292 -16 0 -141 -68 -149
-80 -3 -5 77 -107 178 -227 319 -380 357 -426 351 -432 -3 -3 -16 6 -29 21
-13 16 -31 28 -40 28 -16 0 -122 -56 -130 -70 -3 -4 4 -19 15 -33 28 -35 25
-54 -12 -73 -18 -9 -45 -25 -60 -36 l-28 -19 38 -45 c20 -25 47 -52 60 -60 20
-13 24 -13 39 1 21 22 77 16 81 -8 2 -11 -5 -29 -16 -40 -35 -40 -34 -53 13
-96 52 -48 75 -88 75 -130 0 -20 9 -37 31 -55 29 -25 32 -25 62 -11 30 15 31
15 10 -1 -13 -9 -23 -24 -23 -34 0 -10 30 -53 68 -97 37 -43 80 -94 95 -115
15 -20 35 -39 43 -42 15 -6 135 61 141 79 2 6 -19 37 -46 70 -27 33 -47 62
-45 64 2 3 32 -25 67 -61 l62 -65 -30 -20 c-71 -45 -305 -205 -305 -209 0 -3
99 53 430 246 199 115 273 161 278 171 1 3 16 3 33 1 24 -4 31 0 36 16 5 20
63 50 63 33 0 -5 -11 -12 -25 -15 -24 -6 -27 -26 -4 -26 6 0 8 3 6 8 -3 4 28
18 69 31 59 20 70 26 58 35 -25 19 36 56 96 61 28 1 50 -1 50 -5 0 -5 28 1 63
12 34 11 76 22 92 25 17 3 40 12 51 20 12 7 30 16 40 18 66 15 110 30 115 38
4 5 22 12 40 16 42 9 41 32 -4 74 -18 16 -26 26 -19 22 7 -4 12 0 12 9 0 29
18 17 26 -16 6 -27 8 -30 14 -14 6 17 7 18 13 3 3 -9 4 -23 1 -31 -10 -25 44
-44 106 -39 l55 6 -28 -23 -28 -22 33 -21 c39 -25 79 -47 84 -47 2 0 4 159 4
354 0 274 -3 355 -12 359 -10 4 -10 6 0 6 9 1 12 150 12 710 0 414 -4 712 -9
715 -5 4 -7 -4 -5 -16 4 -21 4 -21 -4 -3 -5 11 -7 25 -5 31 2 7 0 15 -6 18 -6
4 -8 13 -4 21 6 18 -8 20 -25 3 -9 -9 -12 -7 -12 9 0 12 -4 24 -9 27 -4 3 -11
19 -14 36 -4 16 -11 30 -17 30 -6 0 -8 -5 -4 -12 4 -7 3 -8 -5 -4 -6 4 -10 13
-9 20 2 7 -12 27 -30 46 -18 18 -31 38 -28 46 6 15 -17 37 -29 26 -5 -4 -5 -1
-1 6 5 7 2 21 -7 30 -7 9 -17 25 -20 35 -4 9 -12 16 -19 15 -7 -2 -12 4 -10
14 2 11 -5 18 -20 20 -15 2 -23 10 -23 23 -1 11 -6 19 -13 17 -16 -3 -11 19 8
36 8 8 9 11 3 7 -8 -4 -13 0 -13 10 0 10 5 13 13 9 8 -6 8 -3 -1 9 -15 17 -7
61 9 52 5 -3 6 1 3 10 -4 8 0 23 7 32 10 12 10 15 2 9 -8 -4 -13 -1 -13 8 0 9
5 16 11 16 5 0 8 4 4 9 -3 5 -1 12 5 16 6 4 7 12 3 18 -12 19 -12 38 -1 30 8
-4 9 2 4 18 -19 66 -17 109 5 109 6 0 7 -5 3 -12 -5 -7 -3 -8 5 -3 8 4 11 18
8 34 -4 21 1 35 21 57 15 15 27 33 27 38 0 5 9 12 20 17 11 4 14 8 7 8 -19 1
-4 21 15 21 17 0 63 44 63 61 0 5 6 9 13 9 15 0 67 54 67 69 0 6 6 11 14 11
13 0 15 41 16 265 l1 265 -779 0 c-592 0 -781 -3 -790 -12 -9 -9 -12 -9 -12
-1 0 15 -389 16 -406 2 -8 -7 -14 -6 -19 1 -8 13 -102 13 -111 -1 -4 -8 -9 -7
-15 2 -8 12 -11 11 -19 -1 -7 -11 -12 -12 -17 -4 -10 15 -66 15 -75 0 -6 -8
-10 -8 -15 0 -6 8 -57 12 -161 11 -86 0 -148 -4 -140 -8 9 -6 9 -9 1 -9 -6 0
-14 4 -18 9 -3 6 -127 10 -301 11 l-295 0 15 -22z m793 6 c-3 -3 -12 -4 -19
-1 -8 3 -5 6 6 6 11 1 17 -2 13 -5z m83 -4 c0 -5 -4 -10 -10 -10 -5 0 -10 5
-10 10 0 6 5 10 10 10 6 0 10 -4 10 -10z m215 1 c3 -5 1 -12 -5 -16 -5 -3 -10
1 -10 9 0 18 6 21 15 7z m45 5 c0 -3 -4 -8 -10 -11 -5 -3 -10 -1 -10 4 0 6 5
11 10 11 6 0 10 -2 10 -4z m125 -6 c-3 -5 -10 -10 -16 -10 -5 0 -9 5 -9 10 0
6 7 10 16 10 8 0 12 -4 9 -10z m-285 -4 c0 -11 -19 -15 -25 -6 -3 5 1 10 9 10
9 0 16 -2 16 -4z m245 -6 c-3 -5 -10 -10 -16 -10 -5 0 -9 5 -9 10 0 6 7 10 16
10 8 0 12 -4 9 -10z m-771 -25 c9 -14 12 -25 6 -25 -5 0 -10 4 -10 9 0 5 -7
17 -16 25 -8 9 -11 16 -6 16 5 0 17 -11 26 -25z m173 19 c-3 -3 -12 -4 -19 -1
-8 3 -5 6 6 6 11 1 17 -2 13 -5z m188 -4 c-3 -5 -10 -10 -16 -10 -5 0 -9 5 -9
10 0 6 7 10 16 10 8 0 12 -4 9 -10z m125 6 c0 -11 -19 -15 -25 -6 -3 5 1 10 9
10 9 0 16 -2 16 -4z m120 -6 c0 -5 -4 -10 -10 -10 -5 0 -10 5 -10 10 0 6 5 10
10 10 6 0 10 -4 10 -10z m125 0 c-3 -5 -10 -10 -16 -10 -5 0 -9 5 -9 10 0 6 7
10 16 10 8 0 12 -4 9 -10z m125 0 c0 -5 -4 -10 -10 -10 -5 0 -10 5 -10 10 0 6
5 10 10 10 6 0 10 -4 10 -10z m-724 -9 c-4 -5 0 -11 6 -14 7 -2 9 -8 5 -13 -4
-5 -12 -2 -17 6 -13 20 -12 30 1 30 5 0 8 -4 5 -9z m192 -11 c10 -17 10 -20
-5 -20 -9 0 -13 3 -10 7 4 3 2 12 -4 20 -6 7 -7 13 -3 13 5 0 15 -9 22 -20z
m122 16 c0 -3 -4 -8 -10 -11 -5 -3 -10 -1 -10 4 0 6 5 11 10 11 6 0 10 -2 10
-4z m120 -6 c0 -5 -4 -10 -10 -10 -5 0 -10 5 -10 10 0 6 5 10 10 10 6 0 10 -4
10 -10z m120 0 c0 -5 -4 -10 -10 -10 -5 0 -10 5 -10 10 0 6 5 10 10 10 6 0 10
-4 10 -10z m130 0 c0 -5 -4 -10 -10 -10 -5 0 -10 5 -10 10 0 6 5 10 10 10 6 0
10 -4 10 -10z m-853 -6 c-3 -3 -12 -4 -19 -1 -8 3 -5 6 6 6 11 1 17 -2 13 -5z
m130 0 c-3 -3 -12 -4 -19 -1 -8 3 -5 6 6 6 11 1 17 -2 13 -5z m99 -8 c18 -18
18 -26 0 -26 -7 0 -16 9 -19 20 -6 24 -1 25 19 6z m91 8 c-3 -3 -12 -4 -19 -1
-8 3 -5 6 6 6 11 1 17 -2 13 -5z m123 -4 c0 -5 -2 -10 -4 -10 -3 0 -8 5 -11
10 -3 6 -1 10 4 10 6 0 11 -4 11 -10z m125 0 c-3 -5 -10 -10 -16 -10 -5 0 -9
5 -9 10 0 6 7 10 16 10 8 0 12 -4 9 -10z m120 0 c-3 -5 -10 -10 -16 -10 -5 0
-9 5 -9 10 0 6 7 10 16 10 8 0 12 -4 9 -10z m125 0 c0 -5 -4 -10 -10 -10 -5 0
-10 5 -10 10 0 6 5 10 10 10 6 0 10 -4 10 -10z m-723 -6 c-3 -3 -12 -4 -19 -1
-8 3 -5 6 6 6 11 1 17 -2 13 -5z m189 -3 c-4 -5 0 -11 6 -14 7 -2 9 -8 5 -13
-4 -5 -12 -2 -17 6 -13 20 -12 30 1 30 5 0 8 -4 5 -9z m131 3 c-3 -3 -12 -4
-19 -1 -8 3 -5 6 6 6 11 1 17 -2 13 -5z m123 2 c0 -11 -19 -15 -25 -6 -3 5 1
10 9 10 9 0 16 -2 16 -4z m120 0 c0 -3 -4 -8 -10 -11 -5 -3 -10 -1 -10 4 0 6
5 11 10 11 6 0 10 -2 10 -4z m120 -6 c0 -5 -7 -10 -16 -10 -8 0 -12 5 -9 10 3
6 10 10 16 10 5 0 9 -4 9 -10z m124 -11 c-3 -5 -10 -7 -15 -3 -5 3 -7 10 -3
15 3 5 10 7 15 3 5 -3 7 -10 3 -15z m46 11 c0 -5 -2 -10 -4 -10 -3 0 -8 5 -11
10 -3 6 -1 10 4 10 6 0 11 -4 11 -10z m-1023 -6 c-3 -3 -12 -4 -19 -1 -8 3 -5
6 6 6 11 1 17 -2 13 -5z m93 -4 c0 -5 -4 -10 -10 -10 -5 0 -10 5 -10 10 0 6 5
10 10 10 6 0 10 -4 10 -10z m130 0 c0 -5 -4 -10 -10 -10 -5 0 -10 5 -10 10 0
6 5 10 10 10 6 0 10 -4 10 -10z m190 0 c0 -5 -4 -10 -10 -10 -5 0 -10 5 -10
10 0 6 5 10 10 10 6 0 10 -4 10 -10z m160 0 c0 -5 -2 -10 -4 -10 -3 0 -8 5
-11 10 -3 6 -1 10 4 10 6 0 11 -4 11 -10z m120 0 c0 -5 -4 -10 -10 -10 -5 0
-10 5 -10 10 0 6 5 10 10 10 6 0 10 -4 10 -10z m120 0 c0 -5 -4 -10 -10 -10
-5 0 -10 5 -10 10 0 6 5 10 10 10 6 0 10 -4 10 -10z m-853 -6 c-3 -3 -12 -4
-19 -1 -8 3 -5 6 6 6 11 1 17 -2 13 -5z m93 -4 c0 -5 -4 -10 -10 -10 -5 0 -10
5 -10 10 0 6 5 10 10 10 6 0 10 -4 10 -10z m130 0 c0 -5 -4 -10 -10 -10 -5 0
-10 5 -10 10 0 6 5 10 10 10 6 0 10 -4 10 -10z m335 0 c-26 -11 -48 -12 -41
-2 2 4 17 8 33 9 24 1 25 0 8 -7z m135 0 c0 -5 -4 -10 -10 -10 -5 0 -10 5 -10
10 0 6 5 10 10 10 6 0 10 -4 10 -10z m120 0 c0 -5 -4 -10 -10 -10 -5 0 -10 5
-10 10 0 6 5 10 10 10 6 0 10 -4 10 -10z m167 4 c-3 -3 -12 -4 -19 -1 -8 3 -5
6 6 6 11 1 17 -2 13 -5z m128 -4 c3 -5 -1 -10 -10 -10 -9 0 -13 5 -10 10 3 6
8 10 10 10 2 0 7 -4 10 -10z m-1148 -6 c-3 -3 -12 -4 -19 -1 -8 3 -5 6 6 6 11
1 17 -2 13 -5z m101 -14 c10 -17 10 -20 -4 -20 -8 0 -12 5 -9 10 3 6 1 10 -4
10 -6 0 -11 5 -11 10 0 17 14 11 28 -10z m122 10 c0 -5 -4 -10 -10 -10 -5 0
-10 5 -10 10 0 6 5 10 10 10 6 0 10 -4 10 -10z m137 4 c-3 -3 -12 -4 -19 -1
-8 3 -5 6 6 6 11 1 17 -2 13 -5z m183 -4 c0 -5 -4 -10 -10 -10 -5 0 -10 5 -10
10 0 6 5 10 10 10 6 0 10 -4 10 -10z m160 6 c0 -11 -19 -15 -25 -6 -3 5 1 10
9 10 9 0 16 -2 16 -4z m110 -6 c0 -5 -4 -10 -10 -10 -5 0 -10 5 -10 10 0 6 5
10 10 10 6 0 10 -4 10 -10z m290 0 c0 -5 -5 -10 -11 -10 -5 0 -7 5 -4 10 3 6
8 10 11 10 2 0 4 -4 4 -10z m-1050 -10 c0 -5 -2 -10 -4 -10 -3 0 -8 5 -11 10
-3 6 -1 10 4 10 6 0 11 -4 11 -10z m145 -22 c11 -18 19 -36 17 -40 -1 -5 3 -8
8 -8 6 0 10 -4 10 -10 0 -5 -6 -10 -13 -10 -12 0 -41 56 -38 73 0 4 -3 7 -9 7
-5 0 -10 5 -10 10 0 20 16 9 35 -22z m128 12 c3 -14 0 -20 -11 -20 -8 0 -12 3
-9 7 4 3 2 12 -4 20 -9 10 -8 13 4 13 8 0 17 -9 20 -20z m91 3 c4 -9 1 -21 -5
-27 -9 -8 -10 -7 -6 7 4 9 2 17 -3 17 -6 0 -10 5 -10 10 0 16 17 11 24 -7z
m86 7 c0 -5 -4 -10 -10 -10 -5 0 -10 5 -10 10 0 6 5 10 10 10 6 0 10 -4 10
-10z m160 0 c0 -5 -2 -10 -4 -10 -3 0 -8 5 -11 10 -3 6 -1 10 4 10 6 0 11 -4
11 -10z m120 0 c0 -5 -4 -10 -10 -10 -5 0 -10 5 -10 10 0 6 5 10 10 10 6 0 10
-4 10 -10z m280 0 c0 -5 -4 -10 -10 -10 -5 0 -10 5 -10 10 0 6 5 10 10 10 6 0
10 -4 10 -10z m230 6 c0 -3 -4 -8 -10 -11 -5 -3 -10 -1 -10 4 0 6 5 11 10 11
6 0 10 -2 10 -4z m-1273 -13 c-4 -3 -2 -12 4 -20 9 -10 8 -13 -4 -13 -8 0 -17
9 -20 20 -3 14 0 20 11 20 8 0 12 -3 9 -7z m130 1 c-3 -4 0 -16 8 -28 17 -24
19 -36 5 -36 -5 0 -10 7 -10 15 0 8 -5 15 -12 15 -6 0 -8 3 -5 7 4 3 2 12 -4
20 -9 10 -7 13 6 13 10 0 15 -3 12 -6z m128 -4 c-3 -5 -1 -10 4 -10 6 0 11 -4
11 -10 0 -17 -14 -11 -28 10 -10 17 -10 20 4 20 8 0 12 -4 9 -10z m95 0 c0 -5
-4 -10 -10 -10 -5 0 -10 5 -10 10 0 6 5 10 10 10 6 0 10 -4 10 -10z m95 0 c3
-5 -1 -10 -10 -10 -9 0 -13 5 -10 10 3 6 8 10 10 10 2 0 7 -4 10 -10z m164 6
c-12 -10 -59 -15 -59 -6 0 5 14 10 32 10 17 0 29 -2 27 -4z m111 -6 c0 -5 -4
-10 -10 -10 -5 0 -10 5 -10 10 0 6 5 10 10 10 6 0 10 -4 10 -10z m150 6 c0 -3
-4 -8 -10 -11 -5 -3 -10 -1 -10 4 0 6 5 11 10 11 6 0 10 -2 10 -4z m130 0 c0
-3 -4 -8 -10 -11 -5 -3 -10 -1 -10 4 0 6 5 11 10 11 6 0 10 -2 10 -4z m170 -6
c0 -5 -5 -10 -11 -10 -5 0 -7 5 -4 10 3 6 8 10 11 10 2 0 4 -4 4 -10z m-939
-35 c11 -23 13 -35 5 -35 -6 1 -18 16 -27 35 -11 23 -13 35 -5 35 6 -1 18 -16
27 -35z m299 25 c0 -5 -4 -10 -10 -10 -5 0 -10 5 -10 10 0 6 5 10 10 10 6 0
10 -4 10 -10z m155 0 c3 -5 1 -10 -4 -10 -6 0 -11 5 -11 10 0 6 2 10 4 10 3 0
8 -4 11 -10z m270 0 c-3 -5 -10 -10 -16 -10 -5 0 -9 5 -9 10 0 6 7 10 16 10 8
0 12 -4 9 -10z m135 0 c0 -5 -5 -10 -11 -10 -5 0 -7 5 -4 10 3 6 8 10 11 10 2
0 4 -4 4 -10z m40 6 c0 -3 -4 -8 -10 -11 -5 -3 -10 -1 -10 4 0 6 5 11 10 11 6
0 10 -2 10 -4z m-1085 -16 c-3 -5 -1 -10 4 -10 6 0 11 -4 11 -10 0 -17 -14
-11 -28 10 -10 17 -10 20 4 20 8 0 12 -4 9 -10z m455 0 c0 -5 -7 -10 -15 -10
-8 0 -15 5 -15 10 0 6 7 10 15 10 8 0 15 -4 15 -10z m118 -5 c-11 -9 -58 -14
-58 -6 0 10 39 20 53 13 5 -2 7 -5 5 -7z m32 5 c0 -5 -2 -10 -4 -10 -3 0 -8 5
-11 10 -3 6 -1 10 4 10 6 0 11 -4 11 -10z m115 0 c3 -5 1 -10 -4 -10 -6 0 -11
5 -11 10 0 6 2 10 4 10 3 0 8 -4 11 -10z m38 -10 c3 -11 2 -20 -3 -20 -4 0
-10 9 -13 20 -3 11 -2 20 3 20 4 0 10 -9 13 -20z m107 10 c0 -5 -2 -10 -4 -10
-3 0 -8 5 -11 10 -3 6 -1 10 4 10 6 0 11 -4 11 -10z m130 0 c0 -5 -5 -10 -11
-10 -5 0 -7 5 -4 10 3 6 8 10 11 10 2 0 4 -4 4 -10z m-1070 -10 c0 -5 -4 -10
-10 -10 -5 0 -10 5 -10 10 0 6 5 10 10 10 6 0 10 -4 10 -10z m130 0 c0 -5 -7
-10 -16 -10 -8 0 -12 5 -9 10 3 6 10 10 16 10 5 0 9 -4 9 -10z m265 0 c-3 -5
-10 -10 -16 -10 -5 0 -9 5 -9 10 0 6 7 10 16 10 8 0 12 -4 9 -10z m95 0 c0 -5
-7 -10 -16 -10 -8 0 -12 5 -9 10 3 6 10 10 16 10 5 0 9 -4 9 -10z m420 6 c0
-3 -4 -8 -10 -11 -5 -3 -10 -1 -10 4 0 6 5 11 10 11 6 0 10 -2 10 -4z m120 -6
c0 -5 -4 -10 -10 -10 -5 0 -10 5 -10 10 0 6 5 10 10 10 6 0 10 -4 10 -10z
m-680 -10 c0 -5 -4 -10 -10 -10 -5 0 -10 5 -10 10 0 6 5 10 10 10 6 0 10 -4
10 -10z m225 0 c3 -5 -1 -10 -9 -10 -9 0 -16 5 -16 10 0 6 4 10 9 10 6 0 13
-4 16 -10z m155 0 c0 -5 -4 -10 -10 -10 -5 0 -10 5 -10 10 0 6 5 10 10 10 6 0
10 -4 10 -10z m140 0 c0 -5 -2 -10 -4 -10 -3 0 -8 5 -11 10 -3 6 -1 10 4 10 6
0 11 -4 11 -10z m120 0 c0 -5 -4 -10 -10 -10 -5 0 -10 5 -10 10 0 6 5 10 10
10 6 0 10 -4 10 -10z m175 0 c-3 -5 -11 -10 -16 -10 -6 0 -7 5 -4 10 3 6 11
10 16 10 6 0 7 -4 4 -10z m165 0 c0 -5 -4 -10 -10 -10 -5 0 -10 5 -10 10 0 6
5 10 10 10 6 0 10 -4 10 -10z m-1280 -10 c0 -5 -4 -10 -10 -10 -5 0 -10 5 -10
10 0 6 5 10 10 10 6 0 10 -4 10 -10z m265 0 c3 -5 -1 -10 -9 -10 -9 0 -16 5
-16 10 0 6 4 10 9 10 6 0 13 -4 16 -10z m135 6 c0 -11 -19 -15 -25 -6 -3 5 1
10 9 10 9 0 16 -2 16 -4z m90 -6 c0 -5 -7 -10 -15 -10 -8 0 -15 5 -15 10 0 6
7 10 15 10 8 0 15 -4 15 -10z m120 1 c0 -5 -9 -11 -21 -14 -13 -3 -18 -10 -14
-17 5 -9 10 -9 18 -1 15 15 27 14 27 -2 0 -7 -14 -14 -32 -15 -18 -2 -29 0
-25 4 4 4 2 13 -4 20 -9 11 -6 16 12 23 31 13 39 13 39 2z m290 -1 c0 -5 -4
-10 -10 -10 -5 0 -10 5 -10 10 0 6 5 10 10 10 6 0 10 -4 10 -10z m130 0 c0 -5
-7 -10 -16 -10 -8 0 -12 5 -9 10 3 6 10 10 16 10 5 0 9 -4 9 -10z m-1070 -15
c0 -8 5 -15 12 -15 9 0 9 -3 0 -12 -14 -14 -17 -11 -26 20 -5 13 -3 22 3 22 6
0 11 -7 11 -15z m130 5 c0 -5 -4 -10 -10 -10 -5 0 -10 5 -10 10 0 6 5 10 10
10 6 0 10 -4 10 -10z m270 0 c0 -5 -7 -10 -15 -10 -8 0 -15 5 -15 10 0 6 7 10
15 10 8 0 15 -4 15 -10z m85 0 c3 -5 -1 -10 -10 -10 -9 0 -13 5 -10 10 3 6 8
10 10 10 2 0 7 -4 10 -10z m285 0 c0 -5 -4 -10 -10 -10 -5 0 -10 5 -10 10 0 6
5 10 10 10 6 0 10 -4 10 -10z m255 0 c3 -5 -1 -10 -10 -10 -9 0 -13 5 -10 10
3 6 8 10 10 10 2 0 7 -4 10 -10z m215 0 c0 -5 -5 -10 -11 -10 -5 0 -7 5 -4 10
3 6 8 10 11 10 2 0 4 -4 4 -10z m-1145 -10 c-3 -5 -10 -10 -16 -10 -5 0 -9 5
-9 10 0 6 7 10 16 10 8 0 12 -4 9 -10z m265 0 c0 -5 -7 -10 -16 -10 -8 0 -12
5 -9 10 3 6 10 10 16 10 5 0 9 -4 9 -10z m215 0 c3 -5 -1 -10 -10 -10 -9 0
-13 5 -10 10 3 6 8 10 10 10 2 0 7 -4 10 -10z m125 -11 c0 -6 -4 -7 -10 -4 -5
3 -10 11 -10 16 0 6 5 7 10 4 6 -3 10 -11 10 -16z m30 11 c0 -5 -2 -10 -4 -10
-3 0 -8 5 -11 10 -3 6 -1 10 4 10 6 0 11 -4 11 -10z m140 0 c0 -5 -2 -10 -4
-10 -3 0 -8 5 -11 10 -3 6 -1 10 4 10 6 0 11 -4 11 -10z m110 0 c0 -5 -5 -10
-11 -10 -5 0 -7 5 -4 10 3 6 8 10 11 10 2 0 4 -4 4 -10z m175 0 c3 -5 1 -10
-4 -10 -6 0 -11 5 -11 10 0 6 2 10 4 10 3 0 8 -4 11 -10z m-1100 -10 c-3 -5
-10 -10 -16 -10 -5 0 -9 5 -9 10 0 6 7 10 16 10 8 0 12 -4 9 -10z m135 0 c0
-5 -7 -10 -15 -10 -8 0 -15 5 -15 10 0 6 7 10 15 10 8 0 15 -4 15 -10z m125 0
c3 -5 -1 -10 -9 -10 -9 0 -16 5 -16 10 0 6 4 10 9 10 6 0 13 -4 16 -10z m135
0 c0 -5 -7 -10 -15 -10 -8 0 -15 5 -15 10 0 6 7 10 15 10 8 0 15 -4 15 -10z
m90 0 c0 -5 -7 -10 -16 -10 -8 0 -12 5 -9 10 3 6 10 10 16 10 5 0 9 -4 9 -10z
m270 0 c0 -5 -5 -10 -11 -10 -5 0 -7 5 -4 10 3 6 8 10 11 10 2 0 4 -4 4 -10z
m135 0 c3 -5 1 -10 -4 -10 -6 0 -11 5 -11 10 0 6 2 10 4 10 3 0 8 -4 11 -10z
m-795 -10 c0 -5 -4 -10 -10 -10 -5 0 -10 5 -10 10 0 6 5 10 10 10 6 0 10 -4
10 -10z m130 0 c0 -5 -4 -10 -10 -10 -5 0 -10 5 -10 10 0 6 5 10 10 10 6 0 10
-4 10 -10z m130 0 c0 -5 -7 -10 -16 -10 -8 0 -12 5 -9 10 3 6 10 10 16 10 5 0
9 -4 9 -10z m92 -20 c1 -9 -1 -17 -7 -18 -5 -1 -10 1 -10 6 0 4 -3 12 -7 18
-9 13 3 28 13 17 4 -5 9 -15 11 -23z m278 20 c0 -5 -4 -10 -10 -10 -5 0 -10 5
-10 10 0 6 5 10 10 10 6 0 10 -4 10 -10z m-700 -42 c0 -14 -15 -8 -27 11 -15
24 -3 38 14 15 7 -10 13 -21 13 -26z m30 28 c0 -8 6 -17 13 -19 6 -3 1 -6 -12
-6 -13 -1 -21 2 -18 6 4 3 2 12 -4 20 -9 10 -8 13 5 13 9 0 16 -6 16 -14z
m130 4 c0 -5 -7 -10 -16 -10 -8 0 -12 5 -9 10 3 6 10 10 16 10 5 0 9 -4 9 -10z
m130 0 c0 -5 -7 -10 -16 -10 -8 0 -12 5 -9 10 3 6 10 10 16 10 5 0 9 -4 9 -10z
m214 -11 c-3 -5 -10 -7 -15 -3 -5 3 -7 10 -3 15 3 5 10 7 15 3 5 -3 7 -10 3
-15z m161 11 c-3 -5 -10 -10 -16 -10 -5 0 -9 5 -9 10 0 6 7 10 16 10 8 0 12
-4 9 -10z m-720 -10 c3 -5 -1 -10 -10 -10 -9 0 -13 5 -10 10 3 6 8 10 10 10 2
0 7 -4 10 -10z m183 -10 c10 -17 10 -20 -4 -20 -8 0 -12 5 -9 10 3 6 1 10 -4
10 -6 0 -11 5 -11 10 0 17 14 11 28 -10z m122 10 c0 -5 -4 -10 -10 -10 -5 0
-10 5 -10 10 0 6 5 10 10 10 6 0 10 -4 10 -10z m130 0 c0 -5 -4 -10 -10 -10
-5 0 -10 5 -10 10 0 6 5 10 10 10 6 0 10 -4 10 -10z m90 -11 c0 -6 -4 -7 -10
-4 -5 3 -10 11 -10 16 0 6 5 7 10 4 6 -3 10 -11 10 -16z m160 11 c0 -5 -4 -10
-10 -10 -5 0 -10 5 -10 10 0 6 5 10 10 10 6 0 10 -4 10 -10z m110 -6 c0 -8 -5
-12 -10 -9 -6 4 -8 11 -5 16 9 14 15 11 15 -7z m40 12 c0 -3 -4 -8 -10 -11 -5
-3 -10 -1 -10 4 0 6 5 11 10 11 6 0 10 -2 10 -4z m260 0 c0 -11 -19 -15 -25
-6 -3 5 1 10 9 10 9 0 16 -2 16 -4z m-830 -16 c0 -5 -4 -10 -10 -10 -5 0 -10
5 -10 10 0 6 5 10 10 10 6 0 10 -4 10 -10z m130 0 c0 -5 -6 -10 -14 -10 -8 0
-21 -3 -30 -6 -9 -3 -16 -1 -16 4 0 9 9 13 53 21 4 0 7 -3 7 -9z m250 0 c0 -5
-6 -10 -14 -10 -8 0 -21 -3 -30 -6 -9 -3 -16 -1 -16 4 0 9 9 13 53 21 4 0 7
-3 7 -9z m120 0 c0 -5 -4 -10 -10 -10 -5 0 -10 5 -10 10 0 6 5 10 10 10 6 0
10 -4 10 -10z m-532 -20 c10 -17 10 -20 -5 -20 -9 0 -13 3 -10 7 4 3 2 12 -4
20 -6 7 -7 13 -3 13 5 0 15 -9 22 -20z m497 10 c-3 -5 -11 -10 -16 -10 -6 0
-7 5 -4 10 3 6 11 10 16 10 6 0 7 -4 4 -10z m140 0 c3 -5 1 -10 -4 -10 -6 0
-11 5 -11 10 0 6 2 10 4 10 3 0 8 -4 11 -10z m135 0 c0 -5 -2 -10 -4 -10 -3 0
-8 5 -11 10 -3 6 -1 10 4 10 6 0 11 -4 11 -10z m130 0 c0 -5 -5 -10 -11 -10
-5 0 -7 5 -4 10 3 6 8 10 11 10 2 0 4 -4 4 -10z m-1115 -10 c3 -5 -1 -10 -9
-10 -9 0 -16 5 -16 10 0 6 4 10 9 10 6 0 13 -4 16 -10z m130 0 c3 -5 -1 -10
-10 -10 -9 0 -13 5 -10 10 3 6 8 10 10 10 2 0 7 -4 10 -10z m170 0 c-3 -5 -10
-10 -16 -10 -5 0 -9 5 -9 10 0 6 7 10 16 10 8 0 12 -4 9 -10z m125 0 c0 -5 -7
-10 -16 -10 -8 0 -12 5 -9 10 3 6 10 10 16 10 5 0 9 -4 9 -10z m130 0 c0 -5
-7 -10 -15 -10 -8 0 -15 5 -15 10 0 6 7 10 15 10 8 0 15 -4 15 -10z m120 0 c0
-5 -7 -10 -16 -10 -8 0 -12 5 -9 10 3 6 10 10 16 10 5 0 9 -4 9 -10z m150 6
c0 -3 -4 -8 -10 -11 -5 -3 -10 -1 -10 4 0 6 5 11 10 11 6 0 10 -2 10 -4z
m-730 -16 c0 -5 -7 -10 -15 -10 -8 0 -15 5 -15 10 0 6 7 10 15 10 8 0 15 -4
15 -10z m170 0 c0 -5 -4 -10 -9 -10 -6 0 -13 5 -16 10 -3 6 1 10 9 10 9 0 16
-4 16 -10z m120 0 c0 -5 -4 -10 -10 -10 -5 0 -10 5 -10 10 0 6 5 10 10 10 6 0
10 -4 10 -10z m130 0 c0 -5 -4 -10 -9 -10 -6 0 -13 5 -16 10 -3 6 1 10 9 10 9
0 16 -4 16 -10z m120 0 c0 -5 -6 -10 -14 -10 -8 0 -21 -3 -30 -6 -9 -3 -16 -1
-16 4 0 9 9 13 53 21 4 0 7 -3 7 -9z m150 0 c0 -5 -2 -10 -4 -10 -3 0 -8 5
-11 10 -3 6 -1 10 4 10 6 0 11 -4 11 -10z m-730 -10 c0 -5 -7 -10 -15 -10 -8
0 -15 5 -15 10 0 6 7 10 15 10 8 0 15 -4 15 -10z m130 0 c0 -5 -6 -10 -14 -10
-8 0 -21 -3 -30 -6 -9 -3 -16 -1 -16 4 0 9 9 13 53 21 4 0 7 -3 7 -9z m160 0
c0 -5 -4 -10 -10 -10 -5 0 -10 5 -10 10 0 6 5 10 10 10 6 0 10 -4 10 -10z
m130 0 c0 -5 -7 -10 -16 -10 -8 0 -12 5 -9 10 3 6 10 10 16 10 5 0 9 -4 9 -10z
m240 0 c0 -5 -5 -10 -11 -10 -5 0 -7 5 -4 10 3 6 8 10 11 10 2 0 4 -4 4 -10z
m40 6 c0 -3 -4 -8 -10 -11 -5 -3 -10 -1 -10 4 0 6 5 11 10 11 6 0 10 -2 10 -4z
m105 -6 c3 -5 1 -10 -4 -10 -6 0 -11 5 -11 10 0 6 2 10 4 10 3 0 8 -4 11 -10z
m135 0 c0 -5 -4 -10 -10 -10 -5 0 -10 5 -10 10 0 6 5 10 10 10 6 0 10 -4 10
-10z m120 0 c0 -5 -4 -10 -10 -10 -5 0 -10 5 -10 10 0 6 5 10 10 10 6 0 10 -4
10 -10z m-1097 -20 c3 -11 2 -20 -2 -20 -3 0 -12 9 -19 20 -10 16 -10 20 2 20
7 0 16 -9 19 -20z m297 10 c0 -5 -4 -10 -9 -10 -6 0 -13 5 -16 10 -3 6 1 10 9
10 9 0 16 -4 16 -10z m120 0 c0 -5 -4 -10 -10 -10 -5 0 -10 5 -10 10 0 6 5 10
10 10 6 0 10 -4 10 -10z m125 0 c3 -5 -1 -10 -10 -10 -9 0 -13 5 -10 10 3 6 8
10 10 10 2 0 7 -4 10 -10z m115 -6 c0 -8 -5 -12 -10 -9 -6 4 -8 11 -5 16 9 14
15 11 15 -7z m155 6 c-3 -5 -10 -10 -16 -10 -5 0 -9 5 -9 10 0 6 7 10 16 10 8
0 12 -4 9 -10z m135 6 c0 -3 -4 -8 -10 -11 -5 -3 -10 -1 -10 4 0 6 5 11 10 11
6 0 10 -2 10 -4z m110 0 c0 -3 -4 -8 -10 -11 -5 -3 -10 -1 -10 4 0 6 5 11 10
11 6 0 10 -2 10 -4z m-965 -16 c-3 -5 -10 -10 -16 -10 -5 0 -9 5 -9 10 0 6 7
10 16 10 8 0 12 -4 9 -10z m130 -16 c1 -10 5 -29 9 -41 4 -13 3 -23 -2 -23 -6
0 -13 12 -16 28 -4 15 -9 35 -13 46 -3 12 -1 17 8 14 7 -2 13 -13 14 -24z m39
2 c3 -13 9 -31 12 -40 4 -11 1 -16 -11 -16 -9 0 -14 4 -11 9 3 4 1 22 -4 40
-5 17 -5 31 0 31 4 0 11 -11 14 -24z m124 -15 c15 -47 15 -51 2 -51 -6 0 -10
6 -9 13 1 6 -3 25 -9 40 -14 34 -15 37 -4 37 5 0 14 -17 20 -39z m122 29 c0
-5 -7 -10 -15 -10 -8 0 -15 5 -15 10 0 6 7 10 15 10 8 0 15 -4 15 -10z m110 1
c0 -5 -9 -11 -21 -14 -12 -3 -18 -10 -14 -17 5 -8 11 -8 21 1 8 6 14 9 14 5 0
-3 0 -9 0 -13 0 -5 -4 -8 -9 -8 -5 0 -13 -3 -17 -7 -12 -13 -26 -9 -21 6 3 7
1 18 -5 24 -8 8 -7 13 3 16 8 2 21 7 29 9 8 3 16 6 18 6 1 1 2 -3 2 -8z m160
-1 c0 -5 -4 -10 -10 -10 -5 0 -10 5 -10 10 0 6 5 10 10 10 6 0 10 -4 10 -10z
m240 0 c0 -5 -4 -10 -10 -10 -5 0 -10 5 -10 10 0 6 5 10 10 10 6 0 10 -4 10
-10z m-965 -10 c-3 -5 -10 -10 -16 -10 -5 0 -9 5 -9 10 0 6 7 10 16 10 8 0 12
-4 9 -10z m125 0 c0 -5 -4 -10 -10 -10 -5 0 -10 5 -10 10 0 6 5 10 10 10 6 0
10 -4 10 -10z m170 0 c0 -5 -7 -10 -16 -10 -8 0 -12 5 -9 10 3 6 10 10 16 10
5 0 9 -4 9 -10z m120 0 c0 -5 -7 -10 -16 -10 -8 0 -12 5 -9 10 3 6 10 10 16
10 5 0 9 -4 9 -10z m234 -11 c-3 -5 -10 -7 -15 -3 -5 3 -7 10 -3 15 3 5 10 7
15 3 5 -3 7 -10 3 -15z m41 11 c-3 -5 -10 -10 -16 -10 -5 0 -9 5 -9 10 0 6 7
10 16 10 8 0 12 -4 9 -10z m245 6 c0 -3 -4 -8 -10 -11 -5 -3 -10 -1 -10 4 0 6
5 11 10 11 6 0 10 -2 10 -4z m110 -6 c0 -5 -5 -10 -11 -10 -5 0 -7 5 -4 10 3
6 8 10 11 10 2 0 4 -4 4 -10z m-954 -9 c-8 -12 -55 -20 -61 -10 -3 4 5 10 17
12 40 8 49 7 44 -2z m164 -1 c0 -5 -7 -10 -16 -10 -8 0 -12 5 -9 10 3 6 10 10
16 10 5 0 9 -4 9 -10z m120 0 c0 -5 -4 -10 -10 -10 -5 0 -10 5 -10 10 0 6 5
10 10 10 6 0 10 -4 10 -10z m120 -10 c0 -11 0 -22 0 -25 0 -3 -3 -6 -6 -7 -4
-2 -8 9 -10 25 -1 15 2 27 7 27 5 0 9 -9 9 -20z m270 10 c0 -5 -5 -10 -11 -10
-5 0 -7 5 -4 10 3 6 8 10 11 10 2 0 4 -4 4 -10z m240 0 c0 -5 -5 -10 -11 -10
-5 0 -7 5 -4 10 3 6 8 10 11 10 2 0 4 -4 4 -10z m-981 -40 c10 -22 15 -42 10
-46 -8 -5 -29 35 -29 57 0 5 -5 9 -11 9 -5 0 -7 5 -4 10 10 16 13 13 34 -30z
m435 13 c-3 -40 -5 -41 -13 -13 -8 26 -5 40 7 40 4 0 7 -12 6 -27z m156 23 c0
-11 -19 -15 -25 -6 -3 5 1 10 9 10 9 0 16 -2 16 -4z m115 -6 c-3 -5 -11 -10
-16 -10 -6 0 -7 5 -4 10 3 6 11 10 16 10 6 0 7 -4 4 -10z m240 0 c3 -5 1 -10
-4 -10 -6 0 -11 5 -11 10 0 6 2 10 4 10 3 0 8 -4 11 -10z m-995 -10 c0 -5 -4
-10 -9 -10 -6 0 -13 5 -16 10 -3 6 1 10 9 10 9 0 16 -4 16 -10z m158 -1 c-2
-3 3 -13 10 -22 9 -11 10 -17 2 -22 -14 -9 -16 -7 -24 28 -5 20 -3 28 4 25 6
-2 10 -6 8 -9z m167 -9 c-3 -5 -1 -11 5 -15 6 -4 8 -11 4 -16 -3 -5 -10 -7
-15 -3 -5 3 -7 9 -4 14 3 5 1 11 -5 15 -6 4 -8 11 -4 16 3 5 10 7 15 3 5 -3 7
-9 4 -14z m123 -16 c2 -16 -1 -23 -8 -19 -6 3 -8 10 -5 15 3 5 1 11 -5 15 -6
4 -8 11 -4 16 8 14 17 3 22 -27z m272 26 c0 -5 -4 -10 -10 -10 -5 0 -10 5 -10
10 0 6 5 10 10 10 6 0 10 -4 10 -10z m150 6 c0 -3 -4 -8 -10 -11 -5 -3 -10 -1
-10 4 0 6 5 11 10 11 6 0 10 -2 10 -4z m-740 -16 c0 -5 -7 -10 -15 -10 -8 0
-15 5 -15 10 0 6 7 10 15 10 8 0 15 -4 15 -10z m160 0 c0 -5 -7 -10 -16 -10
-8 0 -12 5 -9 10 3 6 10 10 16 10 5 0 9 -4 9 -10z m115 -10 c-3 -5 -1 -11 5
-15 14 -9 13 -25 -2 -25 -7 0 -14 14 -15 30 -1 18 2 28 8 25 5 -4 7 -10 4 -15z
m275 10 c0 -5 -6 -10 -14 -10 -8 0 -21 -3 -30 -6 -9 -3 -16 -1 -16 4 0 9 9 13
53 21 4 0 7 -3 7 -9z m115 0 c3 -5 -1 -10 -10 -10 -9 0 -13 5 -10 10 3 6 8 10
10 10 2 0 7 -4 10 -10z m240 0 c3 -5 1 -10 -4 -10 -6 0 -11 5 -11 10 0 6 2 10
4 10 3 0 8 -4 11 -10z m-945 -10 c0 -5 -4 -10 -9 -10 -6 0 -13 5 -16 10 -3 6
1 10 9 10 9 0 16 -4 16 -10z m670 1 c0 -6 -4 -13 -10 -16 -5 -3 -10 1 -10 9 0
9 5 16 10 16 6 0 10 -4 10 -9z m400 5 c0 -3 -4 -8 -10 -11 -5 -3 -10 -1 -10 4
0 6 5 11 10 11 6 0 10 -2 10 -4z m-1145 -15 c-3 -5 -1 -12 5 -16 15 -9 12 -25
-5 -25 -9 0 -12 6 -9 15 4 8 1 15 -5 15 -6 0 -11 5 -11 10 0 6 7 10 16 10 8 0
13 -4 9 -9z m591 0 c-7 -11 -56 -21 -56 -10 0 4 8 10 18 12 30 8 43 7 38 -2z
m114 -1 c0 -5 -4 -10 -10 -10 -5 0 -10 5 -10 10 0 6 5 10 10 10 6 0 10 -4 10
-10z m150 0 c0 -5 -4 -10 -10 -10 -5 0 -10 5 -10 10 0 6 5 10 10 10 6 0 10 -4
10 -10z m-735 -20 c-3 -5 -1 -11 5 -15 14 -9 12 -27 -2 -22 -7 2 -13 8 -13 13
0 5 -3 14 -7 20 -4 6 -5 14 -1 17 8 9 24 -3 18 -13z m156 -3 c-13 -13 -26 -3
-16 12 3 6 11 8 17 5 6 -4 6 -10 -1 -17z m389 13 c0 -5 -5 -10 -11 -10 -5 0
-7 5 -4 10 3 6 8 10 11 10 2 0 4 -4 4 -10z m155 0 c-3 -5 -11 -10 -16 -10 -6
0 -7 5 -4 10 3 6 11 10 16 10 6 0 7 -4 4 -10z m105 0 c0 -5 -5 -10 -11 -10 -5
0 -7 5 -4 10 3 6 8 10 11 10 2 0 4 -4 4 -10z m-840 -10 c0 -5 -4 -10 -10 -10
-5 0 -10 5 -10 10 0 6 5 10 10 10 6 0 10 -4 10 -10z m155 -10 c-3 -5 -1 -11 5
-15 12 -7 4 -25 -12 -25 -5 0 -8 7 -5 15 4 8 2 17 -4 20 -5 4 -7 11 -3 16 3 5
10 7 15 3 5 -3 7 -9 4 -14z m275 10 c0 -5 -6 -10 -14 -10 -8 0 -21 -3 -30 -6
-9 -3 -16 -1 -16 4 0 9 9 13 53 21 4 0 7 -3 7 -9z m115 0 c-3 -5 -10 -10 -16
-10 -5 0 -9 5 -9 10 0 6 7 10 16 10 8 0 12 -4 9 -10z m155 6 c0 -3 -4 -8 -10
-11 -5 -3 -10 -1 -10 4 0 6 5 11 10 11 6 0 10 -2 10 -4z m110 -6 c0 -5 -5 -10
-11 -10 -5 0 -7 5 -4 10 3 6 8 10 11 10 2 0 4 -4 4 -10z m250 6 c0 -3 -4 -8
-10 -11 -5 -3 -10 -1 -10 4 0 6 5 11 10 11 6 0 10 -2 10 -4z m-940 -16 c0 -5
-7 -10 -16 -10 -8 0 -12 5 -9 10 3 6 10 10 16 10 5 0 9 -4 9 -10z m160 0 c0
-5 -4 -10 -10 -10 -5 0 -10 5 -10 10 0 6 5 10 10 10 6 0 10 -4 10 -10z m230 0
c0 -5 -6 -10 -14 -10 -8 0 -21 -3 -30 -6 -9 -3 -16 -1 -16 4 0 9 9 13 53 21 4
0 7 -3 7 -9z m150 0 c0 -5 -2 -10 -4 -10 -3 0 -8 5 -11 10 -3 6 -1 10 4 10 6
0 11 -4 11 -10z m110 0 c0 -5 -5 -10 -11 -10 -5 0 -7 5 -4 10 3 6 8 10 11 10
2 0 4 -4 4 -10z m-687 -22 c6 -21 2 -36 -7 -27 -10 11 -16 49 -8 49 5 0 12
-10 15 -22z m162 13 c-15 -13 -65 -23 -65 -12 0 5 10 12 23 14 40 8 51 7 42
-2z m115 -1 c0 -5 -4 -10 -10 -10 -5 0 -10 5 -10 10 0 6 5 10 10 10 6 0 10 -4
10 -10z m225 0 c3 -5 -1 -10 -10 -10 -9 0 -13 5 -10 10 3 6 8 10 10 10 2 0 7
-4 10 -10z m42 4 c-3 -3 -12 -4 -19 -1 -8 3 -5 6 6 6 11 1 17 -2 13 -5z m113
-4 c0 -5 -4 -10 -10 -10 -5 0 -10 5 -10 10 0 6 5 10 10 10 6 0 10 -4 10 -10z
m-730 -10 c0 -5 -6 -10 -14 -10 -8 0 -21 -3 -30 -6 -9 -3 -16 -1 -16 4 0 9 9
13 53 21 4 0 7 -3 7 -9z m315 0 c-3 -5 -11 -10 -16 -10 -6 0 -7 5 -4 10 3 6
11 10 16 10 6 0 7 -4 4 -10z m110 0 c-3 -5 -11 -10 -16 -10 -6 0 -7 5 -4 10 3
6 11 10 16 10 6 0 7 -4 4 -10z m109 -11 c-3 -5 -10 -7 -15 -3 -5 3 -7 10 -3
15 3 5 10 7 15 3 5 -3 7 -10 3 -15z m156 11 c0 -5 -4 -10 -10 -10 -5 0 -10 5
-10 10 0 6 5 10 10 10 6 0 10 -4 10 -10z m150 6 c0 -3 -4 -8 -10 -11 -5 -3
-10 -1 -10 4 0 6 5 11 10 11 6 0 10 -2 10 -4z m-915 -15 c3 -5 1 -12 -5 -16
-5 -3 -10 1 -10 9 0 18 6 21 15 7z m195 1 c0 -13 -12 -22 -22 -16 -10 6 -1 24
13 24 5 0 9 -4 9 -8z m160 -2 c0 -5 -6 -10 -14 -10 -8 0 -21 -3 -30 -6 -9 -3
-16 -1 -16 4 0 9 9 13 53 21 4 0 7 -3 7 -9z m110 0 c0 -5 -4 -10 -10 -10 -5 0
-10 5 -10 10 0 6 5 10 10 10 6 0 10 -4 10 -10z m110 1 c0 -9 -52 -22 -59 -15
-4 3 37 22 52 23 4 1 7 -3 7 -8z m150 -1 c0 -5 -5 -10 -11 -10 -5 0 -7 5 -4
10 3 6 8 10 11 10 2 0 4 -4 4 -10z m114 -11 c-3 -5 -10 -7 -15 -3 -5 3 -7 10
-3 15 3 5 10 7 15 3 5 -3 7 -10 3 -15z m36 11 c0 -5 -2 -10 -4 -10 -3 0 -8 5
-11 10 -3 6 -1 10 4 10 6 0 11 -4 11 -10z m-442 -46 c1 -25 -2 -43 -7 -40 -4
3 -7 17 -6 31 2 14 -1 27 -6 31 -5 3 -7 10 -4 15 13 20 22 7 23 -37z m217 37
c3 -5 1 -12 -5 -16 -5 -3 -10 1 -10 9 0 18 6 21 15 7z m40 -1 c-3 -5 -10 -10
-16 -10 -5 0 -9 5 -9 10 0 6 7 10 16 10 8 0 12 -4 9 -10z m115 0 c0 -5 -7 -10
-16 -10 -8 0 -12 5 -9 10 3 6 10 10 16 10 5 0 9 -4 9 -10z m-680 -10 c0 -6 -6
-10 -14 -10 -8 0 -21 -3 -30 -6 -10 -4 -16 -1 -16 7 0 8 12 15 30 16 17 1 30
-2 30 -7z m155 1 c-15 -13 -65 -23 -65 -12 0 5 10 12 23 14 40 8 51 7 42 -2z
m115 -1 c0 -5 -4 -10 -10 -10 -5 0 -10 5 -10 10 0 6 5 10 10 10 6 0 10 -4 10
-10z m110 0 c0 -5 -4 -10 -10 -10 -5 0 -10 5 -10 10 0 6 5 10 10 10 6 0 10 -4
10 -10z m260 0 c0 -5 -4 -10 -10 -10 -5 0 -10 5 -10 10 0 6 5 10 10 10 6 0 10
-4 10 -10z m150 6 c0 -3 -4 -8 -10 -11 -5 -3 -10 -1 -10 4 0 6 5 11 10 11 6 0
10 -2 10 -4z m100 -6 c0 -5 -4 -10 -10 -10 -5 0 -10 5 -10 10 0 6 5 10 10 10
6 0 10 -4 10 -10z m-960 -10 c0 -5 -7 -10 -16 -10 -8 0 -12 5 -9 10 3 6 10 10
16 10 5 0 9 -4 9 -10z m307 -5 c-4 -8 -2 -17 4 -20 11 -7 2 -25 -13 -25 -5 0
-8 6 -5 14 8 19 -3 28 -19 15 -7 -6 -18 -8 -24 -4 -14 9 -1 28 16 21 7 -3 16
-1 19 4 10 16 28 11 22 -5z m104 -40 c-3 -5 -8 1 -11 15 -4 14 -4 29 -1 35 3
5 8 -1 11 -15 4 -14 4 -29 1 -35z m107 43 c-2 -6 -17 -13 -32 -15 -18 -3 -25
0 -21 7 3 6 10 8 14 6 4 -3 13 -1 21 5 20 12 22 11 18 -3z m42 8 c0 -3 -4 -8
-10 -11 -5 -3 -10 -1 -10 4 0 6 5 11 10 11 6 0 10 -2 10 -4z m110 -6 c0 -5 -5
-10 -11 -10 -5 0 -7 5 -4 10 3 6 8 10 11 10 2 0 4 -4 4 -10z m-710 -4 c0 -3
-4 -8 -10 -11 -5 -3 -10 -1 -10 4 0 6 5 11 10 11 6 0 10 -2 10 -4z m150 -10
c0 -8 3 -21 6 -30 4 -11 1 -16 -11 -16 -11 0 -15 5 -12 15 4 8 2 17 -4 20 -11
7 -3 25 12 25 5 0 9 -6 9 -14z m40 4 c0 -5 -7 -10 -15 -10 -8 0 -15 5 -15 10
0 6 7 10 15 10 8 0 15 -4 15 -10z m490 0 c0 -5 -4 -10 -10 -10 -5 0 -10 5 -10
10 0 6 5 10 10 10 6 0 10 -4 10 -10z m105 0 c3 -5 -1 -10 -10 -10 -9 0 -13 5
-10 10 3 6 8 10 10 10 2 0 7 -4 10 -10z m45 6 c0 -3 -4 -8 -10 -11 -5 -3 -10
-1 -10 4 0 6 5 11 10 11 6 0 10 -2 10 -4z m-720 -16 c0 -5 -4 -10 -10 -10 -5
0 -10 5 -10 10 0 6 5 10 10 10 6 0 10 -4 10 -10z m157 -5 c-4 -8 -2 -17 4 -20
11 -7 3 -25 -12 -25 -5 0 -9 6 -7 13 2 6 -2 13 -7 14 -6 2 -10 -7 -10 -20 1
-17 6 -21 23 -20 12 2 22 -2 22 -7 0 -6 -6 -10 -14 -10 -8 0 -22 -3 -32 -7
-13 -5 -16 -3 -11 10 3 9 2 19 -3 22 -5 3 -7 12 -3 21 4 12 0 14 -21 8 -17 -4
-26 -2 -26 6 0 7 7 10 15 7 8 -4 17 -2 21 4 3 6 12 8 20 5 7 -3 16 -1 19 4 10
16 28 11 22 -5z m223 6 c0 -6 -4 -13 -10 -16 -5 -3 -10 1 -10 9 0 9 5 16 10
16 6 0 10 -4 10 -9z m150 -1 c0 -5 -7 -10 -16 -10 -8 0 -12 5 -9 10 3 6 10 10
16 10 5 0 9 -4 9 -10z m110 0 c0 -5 -4 -10 -10 -10 -5 0 -10 5 -10 10 0 6 5
10 10 10 6 0 10 -4 10 -10z m150 6 c0 -3 -4 -8 -10 -11 -5 -3 -10 -1 -10 4 0
6 5 11 10 11 6 0 10 -2 10 -4z m-860 -20 c0 -8 3 -22 7 -32 4 -12 2 -15 -8
-12 -8 3 -14 11 -14 19 0 8 -7 15 -15 15 -32 3 -34 6 -10 14 37 12 40 11 40
-4z m40 4 c0 -5 -4 -10 -9 -10 -6 0 -13 5 -16 10 -3 6 1 10 9 10 9 0 16 -4 16
-10z m310 6 c0 -3 -4 -8 -10 -11 -5 -3 -10 -1 -10 4 0 6 5 11 10 11 6 0 10 -2
10 -4z m210 -6 c0 -5 -4 -10 -10 -10 -5 0 -10 5 -10 10 0 6 5 10 10 10 6 0 10
-4 10 -10z m115 0 c3 -5 1 -10 -4 -10 -6 0 -11 5 -11 10 0 6 2 10 4 10 3 0 8
-4 11 -10z m1975 0 c0 -5 -4 -10 -10 -10 -5 0 -10 5 -10 10 0 6 5 10 10 10 6
0 10 -4 10 -10z m-2125 -10 c-3 -5 -14 -10 -24 -10 -13 0 -18 -8 -18 -25 0
-21 3 -24 25 -18 16 4 23 2 19 -4 -4 -6 -18 -13 -32 -15 -26 -5 -27 -2 -27 52
0 30 0 30 33 30 17 0 28 -4 24 -10z m115 0 c0 -5 -4 -10 -10 -10 -5 0 -10 5
-10 10 0 6 5 10 10 10 6 0 10 -4 10 -10z m150 6 c0 -3 -4 -8 -10 -11 -5 -3
-10 -1 -10 4 0 6 5 11 10 11 6 0 10 -2 10 -4z m1900 -6 c0 -5 -5 -10 -11 -10
-5 0 -7 5 -4 10 3 6 8 10 11 10 2 0 4 -4 4 -10z m-2610 -19 c0 -4 -13 -8 -30
-9 -16 0 -30 4 -30 10 0 5 7 8 15 5 8 -4 17 -2 20 4 7 10 25 3 25 -10z m195 9
c-3 -5 -10 -10 -16 -10 -5 0 -9 5 -9 10 0 6 7 10 16 10 8 0 12 -4 9 -10z m325
0 c0 -5 -4 -10 -10 -10 -5 0 -10 5 -10 10 0 6 5 10 10 10 6 0 10 -4 10 -10z
m110 0 c0 -5 -5 -10 -11 -10 -5 0 -7 5 -4 10 3 6 8 10 11 10 2 0 4 -4 4 -10z
m-360 -10 c0 -5 -4 -10 -10 -10 -5 0 -10 5 -10 10 0 6 5 10 10 10 6 0 10 -4
10 -10z m100 0 c0 -5 -4 -10 -10 -10 -5 0 -10 5 -10 10 0 6 5 10 10 10 6 0 10
-4 10 -10z m110 0 c0 -5 -4 -10 -10 -10 -5 0 -10 5 -10 10 0 6 5 10 10 10 6 0
10 -4 10 -10z m2030 0 c0 -5 -2 -10 -4 -10 -3 0 -8 5 -11 10 -3 6 -1 10 4 10
6 0 11 -4 11 -10z m-2625 -10 c3 -5 1 -10 -4 -10 -6 0 -11 5 -11 10 0 6 2 10
4 10 3 0 8 -4 11 -10z m196 -10 c1 -11 2 -30 2 -42 1 -12 -5 -24 -12 -26 -10
-3 -12 0 -8 12 4 11 1 16 -9 16 -10 0 -14 -6 -11 -15 4 -8 2 -17 -3 -20 -6 -4
-10 2 -11 12 0 10 -2 30 -4 45 -3 26 -2 28 48 37 4 0 8 -8 8 -19z m154 10 c-3
-5 -11 -10 -16 -10 -6 0 -7 5 -4 10 3 6 11 10 16 10 6 0 7 -4 4 -10z m105 6
c0 -3 -4 -8 -10 -11 -5 -3 -10 -1 -10 4 0 6 5 11 10 11 6 0 10 -2 10 -4z m100
0 c0 -11 -19 -15 -25 -6 -3 5 1 10 9 10 9 0 16 -2 16 -4z m-240 -16 c0 -5 -7
-10 -15 -10 -8 0 -15 5 -15 10 0 6 7 10 15 10 8 0 15 -4 15 -10z m105 0 c-3
-5 -11 -10 -16 -10 -6 0 -7 5 -4 10 3 6 11 10 16 10 6 0 7 -4 4 -10z m215 0
c0 -5 -5 -10 -11 -10 -5 0 -7 5 -4 10 3 6 8 10 11 10 2 0 4 -4 4 -10z m2070 0
c0 -5 -4 -10 -10 -10 -5 0 -10 5 -10 10 0 6 5 10 10 10 6 0 10 -4 10 -10z
m-2620 -19 c0 -4 -13 -8 -30 -9 -16 0 -30 4 -30 10 0 5 7 8 15 5 8 -4 17 -2
20 4 7 10 25 3 25 -10z m36 -6 c1 -14 -2 -25 -7 -25 -5 0 -9 4 -9 9 0 5 -3 16
-6 25 -4 10 -1 16 7 16 8 0 15 -11 15 -25z m264 21 c0 -3 -4 -8 -10 -11 -5 -3
-10 -1 -10 4 0 6 5 11 10 11 6 0 10 -2 10 -4z m100 -11 c0 -8 0 -18 1 -22 0
-4 -3 -9 -8 -10 -4 -2 -9 8 -9 22 -1 14 2 25 7 25 5 0 9 -7 9 -15z m110 5 c0
-5 -5 -10 -11 -10 -5 0 -7 5 -4 10 3 6 8 10 11 10 2 0 4 -4 4 -10z m-250 -10
c0 -5 -4 -10 -10 -10 -5 0 -10 5 -10 10 0 6 5 10 10 10 6 0 10 -4 10 -10z
m110 0 c0 -5 -4 -10 -10 -10 -5 0 -10 5 -10 10 0 6 5 10 10 10 6 0 10 -4 10
-10z m2150 0 c0 -5 -5 -10 -11 -10 -5 0 -7 5 -4 10 3 6 8 10 11 10 2 0 4 -4 4
-10z m-2293 -22 c-5 -29 -24 -35 -21 -6 3 29 2 28 14 28 5 0 8 -10 7 -22z
m108 12 c-3 -5 -11 -10 -16 -10 -6 0 -7 5 -4 10 3 6 11 10 16 10 6 0 7 -4 4
-10z m-145 -10 c0 -5 -7 -10 -16 -10 -8 0 -12 5 -9 10 3 6 10 10 16 10 5 0 9
-4 9 -10z m105 0 c-3 -5 -11 -10 -16 -10 -6 0 -7 5 -4 10 3 6 11 10 16 10 6 0
7 -4 4 -10z m2305 6 c0 -3 -4 -8 -10 -11 -5 -3 -10 -1 -10 4 0 6 5 11 10 11 6
0 10 -2 10 -4z m-2633 -32 c-9 -9 -28 6 -21 18 4 6 10 6 17 -1 6 -6 8 -13 4
-17z m43 16 c0 -5 -7 -10 -15 -10 -8 0 -15 5 -15 10 0 6 7 10 15 10 8 0 15 -4
15 -10z m140 0 c0 -5 -4 -10 -10 -10 -5 0 -10 5 -10 10 0 6 5 10 10 10 6 0 10
-4 10 -10z m110 0 c0 -5 -4 -10 -10 -10 -5 0 -10 5 -10 10 0 6 5 10 10 10 6 0
10 -4 10 -10z m110 0 c0 -5 -4 -10 -10 -10 -5 0 -10 5 -10 10 0 6 5 10 10 10
6 0 10 -4 10 -10z m104 2 c3 -5 -1 -9 -9 -9 -8 0 -15 4 -15 9 0 4 4 8 9 8 6 0
12 -4 15 -8z m-139 -12 c-3 -5 -10 -10 -16 -10 -5 0 -9 5 -9 10 0 6 7 10 16
10 8 0 12 -4 9 -10z m105 1 c0 -9 -24 -21 -41 -21 -5 0 -9 4 -9 10 0 5 7 7 15
4 8 -4 15 -1 15 5 0 6 5 11 10 11 6 0 10 -4 10 -9z m-253 -23 c-5 -29 -24 -35
-21 -6 3 29 2 28 14 28 5 0 8 -10 7 -22z m108 0 c-2 -31 -22 -34 -22 -3 0 14
5 25 12 25 6 0 11 -10 10 -22z m2205 12 c0 -5 -4 -10 -10 -10 -5 0 -10 5 -10
10 0 6 5 10 10 10 6 0 10 -4 10 -10z m-2495 -42 c-2 -24 -4 -49 -4 -55 -1 -7
-5 -13 -11 -13 -5 0 -8 10 -6 23 3 12 5 37 5 55 1 17 5 32 10 32 5 0 8 -19 6
-42z m145 32 c0 -5 -4 -10 -10 -10 -5 0 -10 5 -10 10 0 6 5 10 10 10 6 0 10
-4 10 -10z m110 0 c0 -5 -7 -10 -16 -10 -8 0 -12 5 -9 10 3 6 10 10 16 10 5 0
9 -4 9 -10z m118 -9 c3 -8 -1 -12 -9 -9 -7 2 -15 10 -17 17 -3 8 1 12 9 9 7
-2 15 -10 17 -17z m2162 15 c0 -3 -4 -8 -10 -11 -5 -3 -10 -1 -10 4 0 6 5 11
10 11 6 0 10 -2 10 -4z m-2570 -16 c0 -5 -4 -10 -10 -10 -5 0 -10 5 -10 10 0
6 5 10 10 10 6 0 10 -4 10 -10z m250 0 c0 -5 -5 -10 -11 -10 -5 0 -7 5 -4 10
3 6 8 10 11 10 2 0 4 -4 4 -10z m105 0 c-3 -5 0 -10 9 -10 17 0 15 -32 -2 -38
-7 -2 -10 2 -6 11 3 8 1 18 -5 22 -14 8 -14 25 0 25 5 0 7 -4 4 -10z m78 -20
c-3 -12 -8 -19 -11 -16 -5 6 5 36 12 36 2 0 2 -9 -1 -20z m-148 0 c-3 -5 -11
-10 -16 -10 -6 0 -7 5 -4 10 3 6 11 10 16 10 6 0 7 -4 4 -10z m2225 6 c0 -3
-4 -8 -10 -11 -5 -3 -10 -1 -10 4 0 6 5 11 10 11 6 0 10 -2 10 -4z m35 -6 c3
-5 -1 -10 -10 -10 -9 0 -13 5 -10 10 3 6 8 10 10 10 2 0 7 -4 10 -10z m-2545
-10 c0 -5 -5 -10 -11 -10 -5 0 -7 5 -4 10 3 6 8 10 11 10 2 0 4 -4 4 -10z
m250 1 c0 -9 -52 -22 -59 -15 -4 3 37 22 52 23 4 1 7 -3 7 -8z m150 -31 c0
-11 -4 -20 -9 -20 -7 0 -8 17 -2 38 4 10 11 -2 11 -18z m2050 16 c0 -3 -4 -8
-10 -11 -5 -3 -10 -1 -10 4 0 6 5 11 10 11 6 0 10 -2 10 -4z m-2450 -15 c0 -5
-7 -16 -15 -24 -11 -12 -12 -17 -2 -20 7 -3 5 -6 -5 -6 -21 -1 -21 0 -6 34 11
24 28 34 28 16z m140 -1 c0 -5 -4 -10 -10 -10 -5 0 -10 5 -10 10 0 6 5 10 10
10 6 0 10 -4 10 -10z m2350 6 c0 -11 -19 -15 -25 -6 -3 5 1 10 9 10 9 0 16 -2
16 -4z m-100 -16 c0 -5 -5 -10 -11 -10 -5 0 -7 5 -4 10 3 6 8 10 11 10 2 0 4
-4 4 -10z m-2204 -27 c-10 -10 -19 5 -10 18 6 11 8 11 12 0 2 -7 1 -15 -2 -18z
m2244 7 c0 -5 -4 -10 -10 -10 -5 0 -10 5 -10 10 0 6 5 10 10 10 6 0 10 -4 10
-10z m40 0 c0 -5 -4 -10 -10 -10 -5 0 -10 5 -10 10 0 6 5 10 10 10 6 0 10 -4
10 -10z m-2505 -40 c3 -5 1 -10 -4 -10 -6 0 -11 5 -11 10 0 6 2 10 4 10 3 0 8
-4 11 -10z m2445 6 c0 -3 -4 -8 -10 -11 -5 -3 -10 -1 -10 4 0 6 5 11 10 11 6
0 10 -2 10 -4z m35 -6 c-3 -5 -11 -10 -16 -10 -6 0 -7 5 -4 10 3 6 11 10 16
10 6 0 7 -4 4 -10z m-95 -20 c0 -5 -5 -10 -11 -10 -5 0 -7 5 -4 10 3 6 8 10
11 10 2 0 4 -4 4 -10z m-2380 -10 c0 -5 -4 -10 -10 -10 -5 0 -10 5 -10 10 0 6
5 10 10 10 6 0 10 -4 10 -10z m2420 0 c0 -5 -4 -10 -10 -10 -5 0 -10 5 -10 10
0 6 5 10 10 10 6 0 10 -4 10 -10z m-65 -30 c3 -5 1 -10 -4 -10 -6 0 -11 5 -11
10 0 6 2 10 4 10 3 0 8 -4 11 -10z m45 -4 c0 -3 -4 -8 -10 -11 -5 -3 -10 -1
-10 4 0 6 5 11 10 11 6 0 10 -2 10 -4z m-100 -26 c0 -5 -2 -10 -4 -10 -3 0 -8
5 -11 10 -3 6 -1 10 4 10 6 0 11 -4 11 -10z m40 -4 c0 -3 -4 -8 -10 -11 -5 -3
-10 -1 -10 4 0 6 5 11 10 11 6 0 10 -2 10 -4z m-80 -66 c0 -5 -5 -10 -11 -10
-5 0 -7 5 -4 10 3 6 8 10 11 10 2 0 4 -4 4 -10z m-90 -10 c0 -5 -5 -10 -11
-10 -5 0 -7 5 -4 10 3 6 8 10 11 10 2 0 4 -4 4 -10z m40 -14 c0 -3 -4 -8 -10
-11 -5 -3 -10 -1 -10 4 0 6 5 11 10 11 6 0 10 -2 10 -4z m37 -12 c-3 -3 -12
-4 -19 -1 -8 3 -5 6 6 6 11 1 17 -2 13 -5z m-97 -14 c0 -5 -4 -10 -10 -10 -5
0 -10 5 -10 10 0 6 5 10 10 10 6 0 10 -4 10 -10z m17 -46 c-3 -3 -12 -4 -19
-1 -8 3 -5 6 6 6 11 1 17 -2 13 -5z m-57 -24 c0 -5 -4 -10 -10 -10 -5 0 -10 5
-10 10 0 6 5 10 10 10 6 0 10 -4 10 -10z m-220 -160 c0 -5 -2 -10 -4 -10 -3 0
-8 5 -11 10 -3 6 -1 10 4 10 6 0 11 -4 11 -10z m-350 -2308 c-5 -2 -6 -10 -3
-18 3 -8 1 -14 -5 -14 -10 0 -22 33 -22 64 0 16 2 15 19 -5 11 -13 16 -25 11
-27z m-62 2 c-9 -9 -21 -13 -27 -9 -16 10 -3 25 22 25 20 0 20 -1 5 -16z m927
-114 c-3 -5 -10 -10 -16 -10 -5 0 -9 5 -9 10 0 6 7 10 16 10 8 0 12 -4 9 -10z
m-1080 -29 c3 -11 17 -27 31 -35 20 -14 22 -20 14 -36 -5 -10 -9 -29 -7 -41 1
-12 -4 -24 -10 -26 -8 -3 -13 5 -13 20 0 13 -7 30 -15 37 -9 7 -12 22 -9 40 4
15 1 31 -5 34 -13 9 -15 26 -2 26 5 0 12 -9 16 -19z m-495 -1 c0 -5 -4 -10 -9
-10 -6 0 -13 5 -16 10 -3 6 1 10 9 10 9 0 16 -4 16 -10z m1556 -15 c-3 -8 -1
-16 5 -19 5 -2 4 -3 -3 -2 -7 1 -15 13 -16 25 -3 16 0 21 8 16 6 -4 9 -13 6
-20z m-716 -5 c0 -11 6 -20 13 -20 6 0 4 -5 -6 -11 -9 -5 -22 -7 -27 -4 -6 3
-10 1 -10 -4 0 -20 -16 -11 -33 18 -17 29 -17 30 5 34 49 9 58 7 58 -13z m761
3 c13 -17 13 -17 -6 -3 -11 8 -22 16 -24 17 -2 2 0 3 6 3 6 0 17 -8 24 -17z
m-826 -63 c3 -5 -1 -10 -10 -10 -9 0 -13 5 -10 10 3 6 8 10 10 10 2 0 7 -4 10
-10z m-630 -64 c19 -14 19 -15 0 -36 l-20 -22 45 7 c40 7 43 6 31 -8 -14 -18
-106 -41 -136 -36 -21 4 -46 45 -39 63 4 11 70 45 90 45 5 1 19 -5 29 -13z
m65 -11 c0 -16 -27 -32 -37 -22 -3 4 -3 13 0 22 8 20 37 20 37 0z m773 -59
c29 4 19 -23 -13 -36 -38 -16 -47 -8 -30 25 8 14 16 21 19 17 3 -5 14 -8 24
-6z m-203 -71 c10 -12 10 -18 -1 -31 -10 -13 -10 -17 1 -24 22 -14 -31 -30
-73 -23 -36 5 -47 21 -47 71 0 20 5 22 54 22 35 0 58 -5 66 -15z m-151 -144
c-6 -2 -21 7 -33 19 l-21 23 33 -19 c18 -10 28 -20 21 -23z"/>
<path d="M5940 4245 c0 -9 5 -15 11 -13 6 2 11 8 11 13 0 5 -5 11 -11 13 -6 2
-11 -4 -11 -13z"/>
<path d="M5910 4130 c0 -29 -1 -33 -13 -55 -15 -27 -17 -55 -3 -55 8 0 8 -2 0
-8 -6 -4 -13 -20 -16 -35 -4 -18 -2 -25 4 -19 5 5 11 18 13 28 2 11 4 21 5 24
2 3 4 14 5 25 1 11 3 26 3 33 1 7 6 11 10 8 4 -2 9 13 9 35 1 21 -2 39 -8 39
-5 0 -9 -9 -9 -20z"/>
<path d="M5919 4033 c0 -16 -2 -36 -4 -45 -2 -10 1 -18 6 -18 5 0 10 7 10 15
1 8 2 23 3 33 1 9 5 23 9 30 5 8 3 12 -7 12 -11 0 -16 -10 -17 -27z"/>
<path d="M5959 4045 c-1 -3 -2 -13 -3 -22 -1 -10 -5 -24 -9 -30 -5 -7 -4 -13
2 -13 13 0 19 10 25 43 2 15 0 27 -5 27 -5 0 -10 -2 -10 -5z"/>
<path d="M5849 4015 c-5 -19 -3 -31 6 -37 6 -5 6 -8 -2 -8 -7 0 -13 -5 -13
-12 0 -9 3 -9 12 0 14 14 19 62 6 62 -4 0 -9 -2 -9 -5z"/>
<path d="M4556 3974 c-17 -17 -21 -40 -8 -48 4 -2 12 11 18 30 12 39 12 40
-10 18z"/>
<path d="M4532 3766 c-7 -19 -22 -38 -32 -41 -26 -8 -39 -35 -30 -59 6 -19 7
-19 27 1 11 11 25 29 31 38 5 10 15 15 21 11 6 -4 9 -12 5 -17 -3 -5 -10 -7
-15 -4 -10 7 -13 -8 -3 -18 10 -10 34 20 34 41 0 11 4 22 9 24 5 2 -1 15 -13
31 l-22 27 -12 -34z"/>
<path d="M5503 3409 c-35 -22 -46 -37 -15 -20 22 13 58 40 52 41 -3 0 -20 -10
-37 -21z"/>
<path d="M789 3393 c12 -23 29 -38 37 -31 2 3 -8 15 -22 29 -25 23 -26 23 -15
2z"/>
<path d="M5405 3349 c-27 -17 -54 -36 -60 -42 -11 -11 58 28 96 55 40 28 17
20 -36 -13z"/>
<path d="M5220 3234 c-90 -56 -159 -106 -110 -79 42 23 220 137 220 141 0 7 0
7 -110 -62z"/>
<path d="M5035 3119 c-63 -39 -83 -59 -30 -30 40 22 94 61 85 61 -3 0 -27 -14
-55 -31z"/>
<path d="M5613 2903 c-18 -9 -33 -21 -33 -27 0 -13 71 -103 86 -109 17 -8 74
24 74 40 0 15 -78 114 -89 112 -3 0 -21 -8 -38 -16z"/>
<path d="M5411 2795 c-81 -44 -82 -36 40 -185 61 -74 116 -138 123 -142 13 -7
128 52 133 69 5 14 -224 283 -240 283 -7 -1 -32 -12 -56 -25z"/>
<path d="M5815 2780 c10 -11 20 -20 23 -20 3 0 -3 9 -13 20 -10 11 -20 20 -23
20 -3 0 3 -9 13 -20z"/>
<path d="M5681 2742 c-35 -20 -64 -41 -63 -47 1 -20 78 -104 95 -105 23 0 147
68 147 82 0 17 -84 108 -100 108 -8 0 -44 -17 -79 -38z"/>
<path d="M7026 2709 c22 -24 85 -93 140 -154 54 -60 118 -130 140 -155 314
-344 355 -393 350 -413 -3 -14 -2 -17 5 -10 6 6 9 18 7 26 -3 16 -649 731
-671 743 -6 4 6 -13 29 -37z"/>
<path d="M5253 2709 c-29 -17 -53 -33 -53 -36 0 -3 41 -54 91 -114 l90 -109
52 30 c29 16 53 35 55 42 2 13 -164 218 -177 218 -3 0 -30 -14 -58 -31z"/>
<path d="M5843 2633 c-18 -9 -33 -22 -33 -29 0 -13 76 -106 91 -112 9 -4 66
24 73 37 6 9 -81 122 -93 120 -3 0 -21 -8 -38 -16z"/>
<path d="M5655 2480 c-27 -15 -51 -33 -53 -39 -5 -14 77 -111 94 -111 21 0
123 52 128 66 6 16 -82 114 -102 113 -9 0 -39 -13 -67 -29z"/>
<path d="M5918 2472 c-37 -20 -68 -43 -68 -50 0 -19 81 -112 97 -112 16 0 140
67 148 80 6 10 -85 120 -100 120 -5 -1 -40 -18 -77 -38z"/>
<path d="M5453 2472 c-29 -15 -53 -31 -53 -37 0 -5 22 -35 49 -65 l49 -55 56
29 c31 16 56 33 56 38 0 12 -90 118 -99 118 -3 -1 -30 -13 -58 -28z"/>
<path d="M5773 2340 c-29 -17 -53 -36 -53 -43 0 -7 21 -37 48 -66 l47 -52 55
30 c79 42 81 50 31 110 -24 28 -50 51 -59 51 -10 0 -41 -14 -69 -30z"/>
<path d="M6035 2330 c-38 -22 -69 -45 -67 -51 4 -18 115 -149 125 -149 22 0
147 75 147 88 0 17 -111 152 -125 152 -5 0 -41 -18 -80 -40z m85 -5 c0 -8 -2
-15 -4 -15 -2 0 -6 7 -10 15 -3 8 -1 15 4 15 6 0 10 -7 10 -15z m-10 -131 c0
-8 -5 -12 -10 -9 -6 4 -8 11 -5 16 9 14 15 11 15 -7z"/>
<path d="M5569 2332 c-25 -15 -46 -31 -47 -37 -1 -5 19 -36 45 -67 l45 -57 47
24 c75 38 77 43 24 108 -26 31 -51 57 -57 56 -6 0 -32 -12 -57 -27z"/>
<path d="M5893 2200 c-28 -16 -54 -33 -57 -38 -5 -9 77 -115 94 -120 16 -6
130 61 130 76 0 21 -81 112 -99 112 -9 0 -39 -14 -68 -30z"/>
<path d="M5683 2189 c-29 -17 -53 -33 -53 -36 0 -2 23 -31 51 -63 l51 -59 50
25 c27 14 51 31 55 40 5 13 -80 124 -95 124 -4 0 -31 -14 -59 -31z m67 -53 c0
-2 -8 -10 -17 -17 -16 -13 -17 -12 -4 4 13 16 21 21 21 13z"/>
<path d="M6017 2061 c-26 -15 -52 -32 -58 -38 -13 -13 75 -123 98 -123 16 0
119 56 127 69 7 12 -87 121 -104 121 -8 0 -37 -13 -63 -29z m73 -56 c0 -1 -7
-8 -15 -15 -13 -11 -14 -10 -9 5 6 14 4 16 -6 10 -8 -5 -11 -4 -6 3 5 9 36 7
36 -3z"/>
<path d="M5798 2044 c-27 -13 -48 -27 -48 -30 0 -11 95 -124 104 -124 18 0
106 54 106 65 0 20 -82 115 -99 115 -9 -1 -37 -12 -63 -26z m62 -59 c0 -8 -4
-15 -10 -15 -5 0 -7 7 -4 15 4 8 8 15 10 15 2 0 4 -7 4 -15z"/>
<path d="M6138 1916 c-32 -18 -61 -35 -64 -39 -8 -7 85 -127 99 -127 15 0 137
70 137 78 0 10 -100 122 -108 122 -4 0 -33 -15 -64 -34z"/>
<path d="M5918 1901 c-27 -14 -48 -30 -48 -36 1 -5 24 -36 53 -68 l53 -59 49
29 c28 16 51 36 53 44 3 17 -85 119 -101 118 -7 -1 -33 -13 -59 -28z"/>
<path d="M6253 1767 c-29 -17 -53 -38 -53 -47 0 -8 22 -39 49 -69 l48 -54 66
37 c37 20 67 42 67 47 0 19 -92 119 -109 118 -9 0 -40 -15 -68 -32z m87 -53
c0 -2 -9 -8 -20 -14 -15 -8 -18 -8 -14 3 4 11 34 21 34 11z"/>
<path d="M6040 1753 c-25 -14 -47 -28 -49 -29 -2 -2 20 -32 49 -68 l53 -65 46
24 c77 38 78 44 25 109 -26 31 -54 56 -63 56 -9 0 -36 -12 -61 -27z m55 -53
c-3 -5 -1 -10 6 -10 7 0 10 -3 6 -6 -9 -9 -28 6 -22 17 4 5 8 9 11 9 3 0 2 -4
-1 -10z"/>
<path d="M6910 1747 c0 -2 15 -16 33 -33 l32 -29 -29 33 c-28 30 -36 37 -36
29z"/>
<path d="M6378 1617 c-32 -17 -58 -37 -58 -42 0 -14 81 -112 98 -119 14 -6
142 60 142 72 0 16 -95 122 -109 122 -9 0 -42 -15 -73 -33z m79 -53 c-3 -3
-12 -4 -19 -1 -8 3 -5 6 6 6 11 1 17 -2 13 -5z"/>
<path d="M6167 1609 l-57 -32 26 -36 c15 -20 40 -50 56 -67 l29 -31 55 29 c30
16 54 35 54 42 0 7 -24 38 -52 69 l-53 57 -58 -31z"/>
<path d="M6293 1459 c-29 -17 -53 -33 -53 -36 0 -7 100 -133 106 -133 11 0
114 63 114 70 0 10 -101 130 -109 130 -3 0 -30 -14 -58 -31z"/>
<path d="M8480 896 c-30 -18 -226 -136 -435 -263 -209 -126 -450 -271 -535
-323 -85 -51 -165 -103 -178 -116 -13 -13 -30 -24 -38 -24 -18 0 -55 -24 -94
-60 -16 -15 -44 -33 -62 -39 -58 -22 -97 -43 -102 -57 -5 -12 113 -14 749 -14
l755 0 0 465 c0 256 -1 465 -2 465 -2 -1 -28 -16 -58 -34z"/>
<path d="M4096 827 c3 -10 9 -15 12 -12 3 3 0 11 -7 18 -10 9 -11 8 -5 -6z"/>
<path d="M4120 800 c-13 -8 -12 -10 3 -10 9 0 17 5 17 10 0 12 -1 12 -20 0z"/>
<path d="M4140 780 c-8 -5 -12 -11 -10 -14 3 -2 14 2 24 10 22 15 10 19 -14 4z"/>
<path d="M4237 699 c7 -7 15 -10 18 -7 3 3 -2 9 -12 12 -14 6 -15 5 -6 -5z"/>
<path d="M4280 590 l25 -8 -23 -7 c-18 -6 -20 -10 -10 -16 17 -11 31 -11 24 0
-4 5 -1 11 6 13 19 7 -1 28 -25 27 -21 -1 -20 -2 3 -9z"/>
<path d="M4267 306 c-4 -10 -5 -21 -2 -24 9 -9 17 6 13 25 -3 17 -4 17 -11 -1z"/>
<path d="M1350 182 c0 -5 -28 -12 -63 -15 -34 -3 -76 -11 -92 -18 -17 -7 -33
-12 -37 -11 -5 1 -8 -3 -8 -9 0 -5 -4 -8 -10 -4 -17 11 -59 -6 -53 -21 3 -8
-3 -21 -13 -29 -23 -17 -43 -20 -26 -3 17 17 16 44 -1 29 -8 -6 -17 -8 -20 -5
-3 4 -12 -5 -18 -20 -11 -24 -21 -30 -41 -27 -5 0 -7 -5 -5 -12 1 -6 -4 -11
-10 -10 -7 2 -13 -4 -13 -12 0 -13 46 -15 350 -15 l350 0 0 29 c0 44 -12 91
-21 85 -5 -2 -22 10 -38 28 -27 30 -33 33 -97 34 -38 1 -84 4 -101 8 -19 5
-33 4 -33 -2z"/>
</g>
</svg>
